<svg xmlns="http://www.w3.org/2000/svg" xmlns:xlink="http://www.w3.org/1999/xlink" version="1.1" width="120.447" height="122.555" viewBox="0 0 120.447 122.555">
<defs>
<path id="font_1_1" d="M.45199586 .43138124C.45199586 .43537904 .44898988 .44137574 .44198609 .44137574 .43099977 .44137574 .3909912 .4013672 .37399293 .37236024 .35198976 .42637635 .31298829 .4423828 .2809906 .4423828 .16299439 .4423828 .039993287 .29434205 .039993287 .14929199 .039993287 .05126953 .09899902-.0107421879 .17199707-.0107421879 .21499634-.0107421879 .2539978 .013244629 .2899933 .04925537 .2809906 .014251709 .24798584-.1211853 .24499512-.1302185 .23699951-.1583252 .22898865-.16233826 .17298889-.16334534 .1599884-.16334534 .1499939-.16334534 .1499939-.18334961 .1499939-.18434143 .1499939-.19433594 .16299439-.19433594 .19499207-.19433594 .22999573-.19134522 .2630005-.19134522 .29699708-.19134522 .33299256-.19433594 .3659973-.19433594 .37098695-.19433594 .38398744-.19433594 .38398744-.17434693 .38398744-.16334534 .37399293-.16334534 .35798646-.16334534 .30999757-.16334534 .30999757-.15631104 .30999757-.14727783 .30999757-.14025879 .31199647-.13423157 .31399537-.12519837L.45199586 .43138124M.1749878 .011245728C.114990238 .011245728 .11099243 .088272098 .11099243 .105285648 .11099243 .1532898 .13999939 .2623291 .15699768 .30433656 .18798828 .37835694 .23999024 .42037965 .2809906 .42037965 .34599305 .42037965 .3600006 .33935548 .3600006 .33235169 .3600006 .32633973 .30499269 .107284549 .3019867 .103271488 .2869873 .07527161 .23098755 .011245728 .1749878 .011245728Z"/>
<path id="font_2_1" d="M.5159912 .31925965C.5159912 .42918397 .5029907 .50813296 .45700074 .5780945 .42599488 .62405398 .3639984 .6640625 .28399659 .6640625 .051986696 .6640625 .051986696 .39120484 .051986696 .31925965 .051986696 .2472992 .051986696-.01953125 .28399659-.01953125 .5159912-.01953125 .5159912 .2472992 .5159912 .31925965M.28399659 .008468628C.23799134 .008468628 .1769867 .035446168 .15699768 .117385867 .14299011 .17634583 .14299011 .25830079 .14299011 .33224488 .14299011 .40519715 .14299011 .4811554 .1579895 .53611758 .1789856 .6150665 .24299622 .63604739 .28399659 .63604739 .33799745 .63604739 .3899994 .6030731 .4079895 .545105 .42399598 .4911499 .4249878 .41918946 .4249878 .33224488 .4249878 .25830079 .4249878 .18434143 .4119873 .12138367 .3919983 .030441285 .32398988 .008468628 .28399659 .008468628Z"/>
<path id="font_2_2" d="M.33499146 .63612368C.33499146 .6630554 .33299256 .6640625 .30499269 .6640625 .24099732 .6014404 .1499939 .6004486 .10899353 .6004486V.5644531C.1329956 .5644531 .19898987 .5644531 .2539978 .592453V.08203125C.2539978 .04899597 .2539978 .035995485 .1539917 .035995485H.115997318V0C.13398743 .0009918213 .25698854 .0039978029 .2939911 .0039978029 .32499696 .0039978029 .45098878 .0009918213 .47299195 0V.035995485H.43499757C.33499146 .035995485 .33499146 .04899597 .33499146 .08203125V.63612368Z"/>
<path id="font_3_2" d="M.44400025 .24998474C.44400025 .35688783 .35499574 .44381715 .25 .44381715 .14199829 .44381715 .054992677 .35488893 .054992677 .24998474 .054992677 .14407349 .14199829 .056137086 .25 .056137086 .35499574 .056137086 .44400025 .14308167 .44400025 .24998474Z"/>
<path id="font_2_3" d="M.5049896 .18203736H.47099305C.46798707 .16001892 .45799256 .100997928 .44499208 .09098816 .43699647 .084991458 .3600006 .084991458 .34599305 .084991458H.1619873C.2669983 .17803955 .3019867 .20603943 .3619995 .25306703 .43598939 .312088 .5049896 .374115 .5049896 .46914674 .5049896 .5900879 .39898683 .6640625 .2709961 .6640625 .14698792 .6640625 .06298828 .57710269 .06298828 .4851532 .06298828 .43414308 .10598755 .42915345 .115997318 .42915345 .13999939 .42915345 .16899109 .44615174 .16899109 .48214723 .16899109 .5001526 .1619873 .53515627 .10998535 .53515627 .14099121 .6060791 .20899964 .62805178 .2559967 .62805178 .35598756 .62805178 .4079895 .5501404 .4079895 .46914674 .4079895 .38212586 .34599305 .3130951 .31399537 .27708436L.07299805 .038986207C.06298828 .02999878 .06298828 .027999878 .06298828 0H.47499085L.5049896 .18203736Z"/>
<path id="font_3_1" d="M.3889923 .27801515 .18899536 .47720338C.1769867 .48919679 .1749878 .49121095 .16699219 .49121095 .15699768 .49121095 .14698792 .48220826 .14698792 .47120667 .14698792 .46420289 .14898682 .46218873 .1599884 .45118714L.3600006 .24998474 .1599884 .048797609C.14898682 .03779602 .14698792 .03578186 .14698792 .028778077 .14698792 .01777649 .15699768 .0087890629 .16699219 .0087890629 .1749878 .0087890629 .1769867 .010787964 .18899536 .022781373L.3880005 .2219696 .59498599 .014785767C.5970001 .0137786869 .60398867 .0087890629 .6100006 .0087890629 .621994 .0087890629 .6299896 .01777649 .6299896 .028778077 .6299896 .030776978 .6299896 .03479004 .6269989 .039794923 .6259918 .041793825 .46699525 .19894409 .4169922 .24998474L.59999087 .4331665C.6049957 .43917848 .6199951 .45217896 .625 .45819093 .6259918 .46018983 .6299896 .46420289 .6299896 .47120667 .6299896 .48220826 .621994 .49121095 .6100006 .49121095 .60198977 .49121095 .59799197 .48719789 .58699038 .4761963L.3889923 .27801515Z"/>
<path id="font_2_4" d="M.272995 .33428956C.35099793 .33428956 .40699769 .2803192 .40699769 .1733551 .40699769 .04940796 .33499146 .012466431 .2769928 .012466431 .23699951 .012466431 .14898682 .0234375 .10699463 .082351688 .1539917 .084350589 .16499329 .11735535 .16499329 .13835144 .16499329 .17034912 .14099121 .19335938 .10998535 .19335938 .08198547 .19335938 .053985597 .17634583 .053985597 .13534546 .053985597 .041412355 .1579895-.01953125 .2789917-.01953125 .41799928-.01953125 .5139923 .07336426 .5139923 .1733551 .5139923 .2513275 .44999696 .32929994 .33999635 .35229493 .44499208 .39024354 .48298646 .4650879 .48298646 .5260773 .48298646 .60505679 .3919983 .6640625 .2809906 .6640625 .16999817 .6640625 .084991458 .61006167 .084991458 .5300751 .084991458 .49606324 .10699463 .47706605 .13699341 .47706605 .16799927 .47706605 .18798828 .5000763 .18798828 .5280762 .18798828 .5570679 .16799927 .57806399 .13699341 .5800781 .17199707 .62405398 .24099732 .63505557 .27799989 .63505557 .32299806 .63505557 .38598634 .6130676 .38598634 .5260773 .38598634 .48406983 .37199403 .43814088 .34599305 .4072113 .31298829 .36927796 .2849884 .3672943 .23498535 .36428834 .20999146 .3623047 .20799256 .3623047 .20298767 .3612976 .20098877 .3612976 .19299317 .3592987 .19299317 .34829713 .19299317 .33428956 .20199585 .33428956 .21899414 .33428956H.272995Z"/>
<path id="font_2_5" d="M.5289917 .1640625V.20005799H.41799928V.64582827C.41799928 .66682437 .41799928 .6738281 .3959961 .6738281 .38398744 .6738281 .37998963 .6738281 .36999513 .65982058L.038986207 .20005799V.1640625H.33299256V.08201599C.33299256 .04800415 .33299256 .035995485 .2519989 .035995485H.22499085V0C.2749939 .0019989014 .33898927 .0039978029 .375 .0039978029 .4119873 .0039978029 .47599793 .0019989014 .526001 0V.035995485H.49899293C.41799928 .035995485 .41799928 .04800415 .41799928 .08201599V.1640625H.5289917M.33999635 .5658722V.20005799H.07598877L.33999635 .5658722Z"/>
<path id="font_2_6" d="M.15499878 .5588074C.20599365 .5458069 .23599243 .5458069 .2519989 .5458069 .38398744 .5458069 .46199037 .6358032 .46199037 .6508026 .46199037 .6618042 .45498658 .6648102 .44999696 .6648102 .44799806 .6648102 .44599916 .6648102 .44198609 .6618042 .41799928 .6528015 .36499024 .6328125 .29100038 .6328125 .2630005 .6328125 .20999146 .6348114 .14498902 .6598053 .1349945 .6648102 .1329956 .6648102 .13198853 .6648102 .11898804 .6648102 .11898804 .6538086 .11898804 .6378021V.34251405C.11898804 .32548524 .11898804 .3134613 .1349945 .3134613 .14399719 .3134613 .14498902 .3154602 .15499878 .32748414 .19799805 .38259889 .25898744 .390625 .2939911 .390625 .35398866 .390625 .3809967 .34251405 .38598634 .33450318 .4039917 .30143739 .4099884 .26335145 .4099884 .20524597 .4099884 .17524719 .4099884 .116256717 .37998963 .07234192 .35499574 .03640747 .31199647 .012466431 .2630005 .012466431 .19799805 .012466431 .1309967 .04838562 .10598755 .11425781 .14399719 .11125183 .16299439 .13624573 .16299439 .16325379 .16299439 .20625305 .12599182 .21424866 .11299133 .21424866 .11099243 .21424866 .06298828 .21424866 .06298828 .1602478 .06298828 .07034302 .14498902-.01953125 .2649994-.01953125 .3929901-.01953125 .5049896 .07533264 .5049896 .20124817 .5049896 .31445313 .4189911 .41862489 .29499818 .41862489 .25099183 .41862489 .19898987 .4076233 .15499878 .36956788V.5588074Z"/>
</defs>
<use data-text="q" xlink:href="#font_1_1" transform="matrix(9.9626,0,0,-9.9626,20.265,20.112)"/>
<use data-text="0" xlink:href="#font_2_1" transform="matrix(6.9738,0,0,-6.9738,24.712,21.607003)"/>
<path transform="matrix(1,0,0,-1,14.761,2)" stroke-width=".398" stroke-linecap="round" stroke-linejoin="round" fill="none" stroke="#000000" d="M29.365-16.936H19.402"/>
<path transform="matrix(1,0,0,-1,58.172998,18.936)" stroke-width=".398" stroke-linecap="round" stroke-linejoin="round" fill="none" stroke="#000000" d="M-3.885 0H3.885"/>
<path transform="matrix(1,0,0,-1,58.172998,18.936)" stroke-width=".398" stroke-linecap="round" stroke-linejoin="round" fill="none" stroke="#000000" d="M0-3.885V3.885"/>
<path transform="matrix(1,0,0,-1,58.172998,18.936)" stroke-width=".398" stroke-linecap="round" stroke-linejoin="round" fill="none" stroke="#000000" d="M0 3.985C-2.199 3.985-3.985 2.199-3.985 0"/>
<path transform="matrix(1,0,0,-1,58.172998,18.936)" stroke-width=".398" stroke-linecap="round" stroke-linejoin="round" fill="none" stroke="#000000" d="M-3.985 0C-3.985-2.199-2.199-3.985 0-3.985"/>
<path transform="matrix(1,0,0,-1,58.172998,18.936)" stroke-width=".398" stroke-linecap="round" stroke-linejoin="round" fill="none" stroke="#000000" d="M0-3.985C2.199-3.985 3.985-2.199 3.985 0"/>
<path transform="matrix(1,0,0,-1,58.172998,18.936)" stroke-width=".398" stroke-linecap="round" stroke-linejoin="round" fill="none" stroke="#000000" d="M3.985 0C3.985 2.199 2.199 3.985 0 3.985"/>
<path transform="matrix(1,0,0,-1,14.760998,2)" stroke-width=".398" stroke-linecap="round" stroke-linejoin="round" fill="none" stroke="#000000" d="M39.328-16.936H29.365"/>
<path transform="matrix(1,0,0,-1,14.760998,2)" stroke-width=".398" stroke-linecap="round" stroke-linejoin="round" fill="none" stroke="#000000" d="M61.544-16.936H47.497"/>
<path transform="matrix(1,0,0,-1,94.437,18.936)" stroke-width=".398" stroke-linecap="round" stroke-linejoin="round" fill="none" stroke="#000000" d="M-3.885 0H3.885"/>
<path transform="matrix(1,0,0,-1,94.437,18.936)" stroke-width=".398" stroke-linecap="round" stroke-linejoin="round" fill="none" stroke="#000000" d="M0-3.885V3.885"/>
<path transform="matrix(1,0,0,-1,94.437,18.936)" stroke-width=".398" stroke-linecap="round" stroke-linejoin="round" fill="none" stroke="#000000" d="M0 3.985C-2.199 3.985-3.985 2.199-3.985 0"/>
<path transform="matrix(1,0,0,-1,94.437,18.936)" stroke-width=".398" stroke-linecap="round" stroke-linejoin="round" fill="none" stroke="#000000" d="M-3.985 0C-3.985-2.199-2.199-3.985 0-3.985"/>
<path transform="matrix(1,0,0,-1,94.437,18.936)" stroke-width=".398" stroke-linecap="round" stroke-linejoin="round" fill="none" stroke="#000000" d="M0-3.985C2.199-3.985 3.985-2.199 3.985 0"/>
<path transform="matrix(1,0,0,-1,94.437,18.936)" stroke-width=".398" stroke-linecap="round" stroke-linejoin="round" fill="none" stroke="#000000" d="M3.985 0C3.985 2.199 2.199 3.985 0 3.985"/>
<path transform="matrix(1,0,0,-1,14.760994,2)" stroke-width=".398" stroke-linecap="round" stroke-linejoin="round" fill="none" stroke="#000000" d="M75.592-16.936H61.544"/>
<path transform="matrix(1,0,0,-1,14.760994,2)" stroke-width=".398" stroke-linecap="round" stroke-linejoin="round" fill="none" stroke="#000000" d="M93.724-16.936H83.761"/>
<path transform="matrix(1,0,0,-1,14.760994,2)" stroke-width=".398" stroke-linecap="round" stroke-linejoin="round" fill="none" stroke="#000000" d="M103.686-16.936H93.724"/>
<use data-text="q" xlink:href="#font_1_1" transform="matrix(9.9626,0,0,-9.9626,20.264994,37.049005)"/>
<use data-text="1" xlink:href="#font_2_2" transform="matrix(6.9738,0,0,-6.9738,24.711995,38.543008)"/>
<path transform="matrix(1,0,0,-1,14.760994,2)" stroke-width=".398" stroke-linecap="round" stroke-linejoin="round" fill="none" stroke="#000000" d="M29.365-33.873H19.402"/>
<path transform="matrix(1,0,0,-1,14.760994,2)" stroke-width=".398" stroke-linecap="round" stroke-linejoin="round" fill="none" stroke="#000000" d="M43.412-33.873H29.365"/>
<path transform="matrix(1,0,0,-1,76.30499,35.873)" stroke-width=".398" stroke-linecap="round" stroke-linejoin="round" fill="none" stroke="#000000" d="M-3.885 0H3.885"/>
<path transform="matrix(1,0,0,-1,76.30499,35.873)" stroke-width=".398" stroke-linecap="round" stroke-linejoin="round" fill="none" stroke="#000000" d="M0-3.885V3.885"/>
<path transform="matrix(1,0,0,-1,76.30499,35.873)" stroke-width=".398" stroke-linecap="round" stroke-linejoin="round" fill="none" stroke="#000000" d="M0 3.985C-2.199 3.985-3.985 2.199-3.985 0"/>
<path transform="matrix(1,0,0,-1,76.30499,35.873)" stroke-width=".398" stroke-linecap="round" stroke-linejoin="round" fill="none" stroke="#000000" d="M-3.985 0C-3.985-2.199-2.199-3.985 0-3.985"/>
<path transform="matrix(1,0,0,-1,76.30499,35.873)" stroke-width=".398" stroke-linecap="round" stroke-linejoin="round" fill="none" stroke="#000000" d="M0-3.985C2.199-3.985 3.985-2.199 3.985 0"/>
<path transform="matrix(1,0,0,-1,76.30499,35.873)" stroke-width=".398" stroke-linecap="round" stroke-linejoin="round" fill="none" stroke="#000000" d="M3.985 0C3.985 2.199 2.199 3.985 0 3.985"/>
<path transform="matrix(1,0,0,-1,14.760994,2)" stroke-width=".398" stroke-linecap="round" stroke-linejoin="round" fill="none" stroke="#000000" d="M57.46-33.873H43.412"/>
<use data-text="&#x2022;" xlink:href="#font_3_2" transform="matrix(9.9626,0,0,-9.9626,91.94599,38.336)"/>
<path transform="matrix(1,0,0,-1,14.760994,2)" stroke-width=".398" stroke-linecap="round" stroke-linejoin="round" fill="none" stroke="#000000" d="M79.676-32.793V-21.021"/>
<path transform="matrix(1,0,0,-1,14.760994,2)" stroke-width=".398" stroke-linecap="round" stroke-linejoin="round" fill="none" stroke="#000000" d="M78.459-33.873H65.629"/>
<path transform="matrix(1,0,0,-1,14.760994,2)" stroke-width=".398" stroke-linecap="round" stroke-linejoin="round" fill="none" stroke="#000000" d="M93.724-33.873H80.894"/>
<path transform="matrix(1,0,0,-1,14.760994,2)" stroke-width=".398" stroke-linecap="round" stroke-linejoin="round" fill="none" stroke="#000000" d="M103.686-33.873H93.724"/>
<use data-text="q" xlink:href="#font_1_1" transform="matrix(9.9626,0,0,-9.9626,20.264994,53.985)"/>
<use data-text="2" xlink:href="#font_2_3" transform="matrix(6.9738,0,0,-6.9738,24.711995,55.480005)"/>
<use data-text="&#x00d7;" xlink:href="#font_3_1" transform="matrix(9.9626,0,0,-9.9626,40.25099,55.300004)"/>
<path transform="matrix(1,0,0,-1,14.760994,2)" stroke-width=".398" stroke-linecap="round" stroke-linejoin="round" fill="none" stroke="#000000" d="M29.365-50.809H19.402"/>
<use data-text="&#x2022;" xlink:href="#font_3_2" transform="matrix(9.9626,0,0,-9.9626,55.68199,55.272005)"/>
<path transform="matrix(1,0,0,-1,14.760994,2)" stroke-width=".398" stroke-linecap="round" stroke-linejoin="round" fill="none" stroke="#000000" d="M43.412-49.73V-21.021"/>
<path transform="matrix(1,0,0,-1,14.760994,2)" stroke-width=".398" stroke-linecap="round" stroke-linejoin="round" fill="none" stroke="#000000" d="M42.195-50.809H29.365"/>
<path transform="matrix(1,0,0,-1,14.760994,2)" stroke-width=".398" stroke-linecap="round" stroke-linejoin="round" fill="none" stroke="#000000" d="M61.544-50.809H44.63"/>
<path transform="matrix(1,0,0,-1,14.760994,2)" stroke-width=".398" stroke-linecap="round" stroke-linejoin="round" fill="none" stroke="#000000" d="M79.676-50.809H61.544"/>
<path transform="matrix(1,0,0,-1,14.760994,2)" stroke-width=".398" stroke-linecap="round" stroke-linejoin="round" fill="none" stroke="#000000" d="M93.724-50.809H79.676"/>
<path transform="matrix(1,0,0,-1,14.760994,2)" stroke-width=".398" stroke-linecap="round" stroke-linejoin="round" fill="none" stroke="#000000" d="M103.686-50.809H93.724"/>
<use data-text="q" xlink:href="#font_1_1" transform="matrix(9.9626,0,0,-9.9626,20.264994,70.922)"/>
<use data-text="3" xlink:href="#font_2_4" transform="matrix(6.9738,0,0,-6.9738,24.711995,72.416)"/>
<path transform="matrix(1,0,0,-1,14.760994,2)" stroke-width=".398" stroke-linecap="round" stroke-linejoin="round" fill="none" stroke="#000000" d="M29.365-67.746H19.402"/>
<use data-text="&#x00d7;" xlink:href="#font_3_1" transform="matrix(9.9626,0,0,-9.9626,54.298997,72.236)"/>
<path transform="matrix(1,0,0,-1,14.760994,2)" stroke-width=".398" stroke-linecap="round" stroke-linejoin="round" fill="none" stroke="#000000" d="M43.412-67.746H29.365"/>
<use data-text="&#x2022;" xlink:href="#font_3_2" transform="matrix(9.9626,0,0,-9.9626,73.813999,72.209)"/>
<path transform="matrix(1,0,0,-1,14.760994,2)" stroke-width=".398" stroke-linecap="round" stroke-linejoin="round" fill="none" stroke="#000000" d="M61.544-66.666V-37.958"/>
<path transform="matrix(1,0,0,-1,14.760994,2)" stroke-width=".398" stroke-linecap="round" stroke-linejoin="round" fill="none" stroke="#000000" d="M60.327-67.746H43.412"/>
<path transform="matrix(1,0,0,-1,14.760994,2)" stroke-width=".398" stroke-linecap="round" stroke-linejoin="round" fill="none" stroke="#000000" d="M79.676-67.746H62.762"/>
<path transform="matrix(1,0,0,-1,14.760994,2)" stroke-width=".398" stroke-linecap="round" stroke-linejoin="round" fill="none" stroke="#000000" d="M93.724-67.746H79.676"/>
<path transform="matrix(1,0,0,-1,14.760994,2)" stroke-width=".398" stroke-linecap="round" stroke-linejoin="round" fill="none" stroke="#000000" d="M103.686-67.746H93.724"/>
<use data-text="q" xlink:href="#font_1_1" transform="matrix(9.9626,0,0,-9.9626,20.264994,87.858)"/>
<use data-text="4" xlink:href="#font_2_5" transform="matrix(6.9738,0,0,-6.9738,24.711995,89.353)"/>
<use data-text="&#x00d7;" xlink:href="#font_3_1" transform="matrix(9.9626,0,0,-9.9626,40.25099,89.173007)"/>
<path transform="matrix(1,0,0,-1,14.760994,2)" stroke-width=".398" stroke-linecap="round" stroke-linejoin="round" fill="none" stroke="#000000" d="M29.365-84.682H19.402"/>
<path transform="matrix(1,0,0,-1,14.760994,2)" stroke-width=".398" stroke-linecap="round" stroke-linejoin="round" fill="none" stroke="#000000" d="M29.365-84.682V-50.809"/>
<path transform="matrix(1,0,0,-1,14.760994,2)" stroke-width=".398" stroke-linecap="round" stroke-linejoin="round" fill="none" stroke="#000000" d="M43.412-84.682H29.365"/>
<path transform="matrix(1,0,0,-1,14.760994,2)" stroke-width=".398" stroke-linecap="round" stroke-linejoin="round" fill="none" stroke="#000000" d="M61.544-84.682H43.412"/>
<path transform="matrix(1,0,0,-1,14.760994,2)" stroke-width=".398" stroke-linecap="round" stroke-linejoin="round" fill="none" stroke="#000000" d="M79.676-84.682H61.544"/>
<path transform="matrix(1,0,0,-1,14.760994,2)" stroke-width=".398" stroke-linecap="round" stroke-linejoin="round" fill="none" stroke="#000000" d="M93.724-84.682H79.676"/>
<path transform="matrix(1,0,0,-1,14.760994,2)" stroke-width=".398" stroke-linecap="round" stroke-linejoin="round" fill="none" stroke="#000000" d="M103.686-84.682H93.724"/>
<use data-text="q" xlink:href="#font_1_1" transform="matrix(9.9626,0,0,-9.9626,20.264994,104.795)"/>
<use data-text="5" xlink:href="#font_2_6" transform="matrix(6.9738,0,0,-6.9738,24.711995,106.289)"/>
<path transform="matrix(1,0,0,-1,14.760994,2)" stroke-width=".398" stroke-linecap="round" stroke-linejoin="round" fill="none" stroke="#000000" d="M29.365-101.619H19.402"/>
<use data-text="&#x00d7;" xlink:href="#font_3_1" transform="matrix(9.9626,0,0,-9.9626,54.298997,106.109)"/>
<path transform="matrix(1,0,0,-1,14.760994,2)" stroke-width=".398" stroke-linecap="round" stroke-linejoin="round" fill="none" stroke="#000000" d="M43.412-101.619H29.365"/>
<path transform="matrix(1,0,0,-1,14.760994,2)" stroke-width=".398" stroke-linecap="round" stroke-linejoin="round" fill="none" stroke="#000000" d="M43.412-101.619V-67.746"/>
<path transform="matrix(1,0,0,-1,14.760994,2)" stroke-width=".398" stroke-linecap="round" stroke-linejoin="round" fill="none" stroke="#000000" d="M61.544-101.619H43.412"/>
<path transform="matrix(1,0,0,-1,14.760994,2)" stroke-width=".398" stroke-linecap="round" stroke-linejoin="round" fill="none" stroke="#000000" d="M79.676-101.619H61.544"/>
<path transform="matrix(1,0,0,-1,14.760994,2)" stroke-width=".398" stroke-linecap="round" stroke-linejoin="round" fill="none" stroke="#000000" d="M93.724-101.619H79.676"/>
<path transform="matrix(1,0,0,-1,14.760994,2)" stroke-width=".398" stroke-linecap="round" stroke-linejoin="round" fill="none" stroke="#000000" d="M103.686-101.619H93.724"/>
</svg>
