<svg xmlns="http://www.w3.org/2000/svg" xmlns:xlink="http://www.w3.org/1999/xlink" version="1.1" width="124.169" height="156.428" viewBox="0 0 124.169 156.428">
<defs>
<path id="font_1_1" d="M.5159912 .31925965C.5159912 .42918397 .5029907 .50813296 .45700074 .5780945 .42599488 .62405398 .3639984 .6640625 .28399659 .6640625 .051986696 .6640625 .051986696 .39120484 .051986696 .31925965 .051986696 .2472992 .051986696-.01953125 .28399659-.01953125 .5159912-.01953125 .5159912 .2472992 .5159912 .31925965M.28399659 .008468628C.23799134 .008468628 .1769867 .035446168 .15699768 .117385867 .14299011 .17634583 .14299011 .25830079 .14299011 .33224488 .14299011 .40519715 .14299011 .4811554 .1579895 .53611758 .1789856 .6150665 .24299622 .63604739 .28399659 .63604739 .33799745 .63604739 .3899994 .6030731 .4079895 .545105 .42399598 .4911499 .4249878 .41918946 .4249878 .33224488 .4249878 .25830079 .4249878 .18434143 .4119873 .12138367 .3919983 .030441285 .32398988 .008468628 .28399659 .008468628Z"/>
<path id="font_1_2" d="M.33499146 .63612368C.33499146 .6630554 .33299256 .6640625 .30499269 .6640625 .24099732 .6014404 .1499939 .6004486 .10899353 .6004486V.5644531C.1329956 .5644531 .19898987 .5644531 .2539978 .592453V.08203125C.2539978 .04899597 .2539978 .035995485 .1539917 .035995485H.115997318V0C.13398743 .0009918213 .25698854 .0039978029 .2939911 .0039978029 .32499696 .0039978029 .45098878 .0009918213 .47299195 0V.035995485H.43499757C.33499146 .035995485 .33499146 .04899597 .33499146 .08203125V.63612368Z"/>
<path id="font_2_1" d="M.44400025 .24998474C.44400025 .35688783 .35499574 .44381715 .25 .44381715 .14199829 .44381715 .054992677 .35488893 .054992677 .24998474 .054992677 .14407349 .14199829 .056137086 .25 .056137086 .35499574 .056137086 .44400025 .14308167 .44400025 .24998474Z"/>
<path id="font_1_3" d="M.5049896 .18203736H.47099305C.46798707 .16001892 .45799256 .100997928 .44499208 .09098816 .43699647 .084991458 .3600006 .084991458 .34599305 .084991458H.1619873C.2669983 .17803955 .3019867 .20603943 .3619995 .25306703 .43598939 .312088 .5049896 .374115 .5049896 .46914674 .5049896 .5900879 .39898683 .6640625 .2709961 .6640625 .14698792 .6640625 .06298828 .57710269 .06298828 .4851532 .06298828 .43414308 .10598755 .42915345 .115997318 .42915345 .13999939 .42915345 .16899109 .44615174 .16899109 .48214723 .16899109 .5001526 .1619873 .53515627 .10998535 .53515627 .14099121 .6060791 .20899964 .62805178 .2559967 .62805178 .35598756 .62805178 .4079895 .5501404 .4079895 .46914674 .4079895 .38212586 .34599305 .3130951 .31399537 .27708436L.07299805 .038986207C.06298828 .02999878 .06298828 .027999878 .06298828 0H.47499085L.5049896 .18203736Z"/>
<path id="font_1_4" d="M.272995 .33428956C.35099793 .33428956 .40699769 .2803192 .40699769 .1733551 .40699769 .04940796 .33499146 .012466431 .2769928 .012466431 .23699951 .012466431 .14898682 .0234375 .10699463 .082351688 .1539917 .084350589 .16499329 .11735535 .16499329 .13835144 .16499329 .17034912 .14099121 .19335938 .10998535 .19335938 .08198547 .19335938 .053985597 .17634583 .053985597 .13534546 .053985597 .041412355 .1579895-.01953125 .2789917-.01953125 .41799928-.01953125 .5139923 .07336426 .5139923 .1733551 .5139923 .2513275 .44999696 .32929994 .33999635 .35229493 .44499208 .39024354 .48298646 .4650879 .48298646 .5260773 .48298646 .60505679 .3919983 .6640625 .2809906 .6640625 .16999817 .6640625 .084991458 .61006167 .084991458 .5300751 .084991458 .49606324 .10699463 .47706605 .13699341 .47706605 .16799927 .47706605 .18798828 .5000763 .18798828 .5280762 .18798828 .5570679 .16799927 .57806399 .13699341 .5800781 .17199707 .62405398 .24099732 .63505557 .27799989 .63505557 .32299806 .63505557 .38598634 .6130676 .38598634 .5260773 .38598634 .48406983 .37199403 .43814088 .34599305 .4072113 .31298829 .36927796 .2849884 .3672943 .23498535 .36428834 .20999146 .3623047 .20799256 .3623047 .20298767 .3612976 .20098877 .3612976 .19299317 .3592987 .19299317 .34829713 .19299317 .33428956 .20199585 .33428956 .21899414 .33428956H.272995Z"/>
<path id="font_1_5" d="M.5289917 .1640625V.20005799H.41799928V.64582827C.41799928 .66682437 .41799928 .6738281 .3959961 .6738281 .38398744 .6738281 .37998963 .6738281 .36999513 .65982058L.038986207 .20005799V.1640625H.33299256V.08201599C.33299256 .04800415 .33299256 .035995485 .2519989 .035995485H.22499085V0C.2749939 .0019989014 .33898927 .0039978029 .375 .0039978029 .4119873 .0039978029 .47599793 .0019989014 .526001 0V.035995485H.49899293C.41799928 .035995485 .41799928 .04800415 .41799928 .08201599V.1640625H.5289917M.33999635 .5658722V.20005799H.07598877L.33999635 .5658722Z"/>
<path id="font_1_6" d="M.15499878 .5588074C.20599365 .5458069 .23599243 .5458069 .2519989 .5458069 .38398744 .5458069 .46199037 .6358032 .46199037 .6508026 .46199037 .6618042 .45498658 .6648102 .44999696 .6648102 .44799806 .6648102 .44599916 .6648102 .44198609 .6618042 .41799928 .6528015 .36499024 .6328125 .29100038 .6328125 .2630005 .6328125 .20999146 .6348114 .14498902 .6598053 .1349945 .6648102 .1329956 .6648102 .13198853 .6648102 .11898804 .6648102 .11898804 .6538086 .11898804 .6378021V.34251405C.11898804 .32548524 .11898804 .3134613 .1349945 .3134613 .14399719 .3134613 .14498902 .3154602 .15499878 .32748414 .19799805 .38259889 .25898744 .390625 .2939911 .390625 .35398866 .390625 .3809967 .34251405 .38598634 .33450318 .4039917 .30143739 .4099884 .26335145 .4099884 .20524597 .4099884 .17524719 .4099884 .116256717 .37998963 .07234192 .35499574 .03640747 .31199647 .012466431 .2630005 .012466431 .19799805 .012466431 .1309967 .04838562 .10598755 .11425781 .14399719 .11125183 .16299439 .13624573 .16299439 .16325379 .16299439 .20625305 .12599182 .21424866 .11299133 .21424866 .11099243 .21424866 .06298828 .21424866 .06298828 .1602478 .06298828 .07034302 .14498902-.01953125 .2649994-.01953125 .3929901-.01953125 .5049896 .07533264 .5049896 .20124817 .5049896 .31445313 .4189911 .41862489 .29499818 .41862489 .25099183 .41862489 .19898987 .4076233 .15499878 .36956788V.5588074Z"/>
<path id="font_1_7" d="M.1499939 .3274536C.1499939 .40945436 .15699768 .48303224 .19499207 .543869 .22898865 .5978699 .2829895 .63505557 .34700013 .63505557 .3769989 .63505557 .4169922 .62701418 .43699647 .5998688 .4119873 .5978699 .3909912 .5808716 .3909912 .5518799 .3909912 .5268707 .4079895 .5048828 .43798829 .5048828 .46798707 .5048828 .48599244 .5248718 .48599244 .5538788 .48599244 .6119385 .44400025 .6640625 .34498597 .6640625 .20098877 .6640625 .053985597 .5318756 .053985597 .3174591 .053985597 .05845642 .17599488-.01953125 .28599549-.01953125 .4079895-.01953125 .5139923 .07345581 .5139923 .20445252 .5139923 .33145143 .41299439 .42546083 .29599 .42546083 .21598816 .42546083 .17199707 .37245179 .1499939 .3274536M.28599549 .012466431C.23599243 .012466431 .19699097 .04145813 .17599488 .08546448 .16099549 .11546326 .15299988 .16545105 .15299988 .22544861 .15299988 .32244874 .21099854 .39746095 .29100038 .39746095 .33699037 .39746095 .36799623 .37945558 .3929901 .342453 .4169922 .30445863 .41799928 .26245118 .41799928 .20445252 .41799928 .14746094 .41799928 .10545349 .3909912 .066467288 .36698915 .031463624 .33499146 .012466431 .28599549 .012466431Z"/>
<path id="font_1_8" d="M.35499574 .36123658C.43299867 .3992157 .48298646 .44618226 .48298646 .5151367 .48298646 .6120758 .38198854 .6640625 .2849884 .6640625 .1749878 .6640625 .084991458 .5920868 .084991458 .4971466 .084991458 .45018006 .10699463 .41619874 .125 .39620973 .14299011 .37522889 .1499939 .37123109 .20899964 .33624269 .15299988 .31227113 .053985597 .25830079 .053985597 .15336609 .053985597 .042434694 .16899109-.01953125 .2829895-.01953125 .4099884-.01953125 .5139923 .061431886 .5139923 .1693573 .5139923 .23532105 .47499085 .29127503 .4169922 .32525636 .4039917 .33325196 .36898805 .35324098 .35499574 .36123658M.19198609 .45617677C.1659851 .4711609 .13798523 .49813844 .13798523 .53512576 .13798523 .5980835 .21099854 .63505557 .2829895 .63505557 .36099244 .63505557 .42999269 .5860901 .42999269 .5151367 .42999269 .42619325 .32598878 .3812256 .32398988 .3812256 .32199098 .3812256 .31999208 .3822174 .31298829 .3862152L.19198609 .45617677M.24099732 .31726075 .37799073 .23831177C.4039917 .22332764 .45399476 .19334412 .45399476 .13438416 .45399476 .059432985 .37098695 .012466431 .2849884 .012466431 .19299317 .012466431 .11399841 .07142639 .11399841 .15336609 .11399841 .22732544 .16899109 .2842865 .24099732 .31726075Z"/>
</defs>
<use data-text="0" xlink:href="#font_1_1" transform="matrix(6.9738,0,0,-6.9738,20.265,21.182999)"/>
<path transform="matrix(1,0,0,-1,12.537,2)" stroke-width=".398" stroke-linecap="round" stroke-linejoin="round" fill="none" stroke="#000000" d="M31.226-16.936H17.179"/>
<path transform="matrix(1,0,0,-1,61.895,18.936)" stroke-width=".398" stroke-linecap="round" stroke-linejoin="round" fill="none" stroke="#000000" d="M-3.885 0H3.885"/>
<path transform="matrix(1,0,0,-1,61.895,18.936)" stroke-width=".398" stroke-linecap="round" stroke-linejoin="round" fill="none" stroke="#000000" d="M0-3.885V3.885"/>
<path transform="matrix(1,0,0,-1,61.895,18.936)" stroke-width=".398" stroke-linecap="round" stroke-linejoin="round" fill="none" stroke="#000000" d="M0 3.985C-2.199 3.985-3.985 2.199-3.985 0"/>
<path transform="matrix(1,0,0,-1,61.895,18.936)" stroke-width=".398" stroke-linecap="round" stroke-linejoin="round" fill="none" stroke="#000000" d="M-3.985 0C-3.985-2.199-2.199-3.985 0-3.985"/>
<path transform="matrix(1,0,0,-1,61.895,18.936)" stroke-width=".398" stroke-linecap="round" stroke-linejoin="round" fill="none" stroke="#000000" d="M0-3.985C2.199-3.985 3.985-2.199 3.985 0"/>
<path transform="matrix(1,0,0,-1,61.895,18.936)" stroke-width=".398" stroke-linecap="round" stroke-linejoin="round" fill="none" stroke="#000000" d="M3.985 0C3.985 2.199 2.199 3.985 0 3.985"/>
<path transform="matrix(1,0,0,-1,12.536999,2)" stroke-width=".398" stroke-linecap="round" stroke-linejoin="round" fill="none" stroke="#000000" d="M45.273-16.936H31.226"/>
<path transform="matrix(1,0,0,-1,12.536999,2)" stroke-width=".398" stroke-linecap="round" stroke-linejoin="round" fill="none" stroke="#000000" d="M67.49-16.936H53.443"/>
<path transform="matrix(1,0,0,-1,98.159,18.936)" stroke-width=".398" stroke-linecap="round" stroke-linejoin="round" fill="none" stroke="#000000" d="M-3.885 0H3.885"/>
<path transform="matrix(1,0,0,-1,98.159,18.936)" stroke-width=".398" stroke-linecap="round" stroke-linejoin="round" fill="none" stroke="#000000" d="M0-3.885V3.885"/>
<path transform="matrix(1,0,0,-1,98.159,18.936)" stroke-width=".398" stroke-linecap="round" stroke-linejoin="round" fill="none" stroke="#000000" d="M0 3.985C-2.199 3.985-3.985 2.199-3.985 0"/>
<path transform="matrix(1,0,0,-1,98.159,18.936)" stroke-width=".398" stroke-linecap="round" stroke-linejoin="round" fill="none" stroke="#000000" d="M-3.985 0C-3.985-2.199-2.199-3.985 0-3.985"/>
<path transform="matrix(1,0,0,-1,98.159,18.936)" stroke-width=".398" stroke-linecap="round" stroke-linejoin="round" fill="none" stroke="#000000" d="M0-3.985C2.199-3.985 3.985-2.199 3.985 0"/>
<path transform="matrix(1,0,0,-1,98.159,18.936)" stroke-width=".398" stroke-linecap="round" stroke-linejoin="round" fill="none" stroke="#000000" d="M3.985 0C3.985 2.199 2.199 3.985 0 3.985"/>
<path transform="matrix(1,0,0,-1,12.536995,2)" stroke-width=".398" stroke-linecap="round" stroke-linejoin="round" fill="none" stroke="#000000" d="M81.537-16.936H67.49"/>
<path transform="matrix(1,0,0,-1,12.536995,2)" stroke-width=".398" stroke-linecap="round" stroke-linejoin="round" fill="none" stroke="#000000" d="M99.669-16.936H89.706"/>
<path transform="matrix(1,0,0,-1,12.536995,2)" stroke-width=".398" stroke-linecap="round" stroke-linejoin="round" fill="none" stroke="#000000" d="M109.632-16.936H99.669"/>
<use data-text="1" xlink:href="#font_1_2" transform="matrix(6.9738,0,0,-6.9738,20.264996,38.119997)"/>
<path transform="matrix(1,0,0,-1,43.762998,35.872995)" stroke-width=".398" stroke-linecap="round" stroke-linejoin="round" fill="none" stroke="#000000" d="M-3.885 0H3.885"/>
<path transform="matrix(1,0,0,-1,43.762998,35.872995)" stroke-width=".398" stroke-linecap="round" stroke-linejoin="round" fill="none" stroke="#000000" d="M0-3.885V3.885"/>
<path transform="matrix(1,0,0,-1,43.762998,35.872995)" stroke-width=".398" stroke-linecap="round" stroke-linejoin="round" fill="none" stroke="#000000" d="M0 3.985C-2.199 3.985-3.985 2.199-3.985 0"/>
<path transform="matrix(1,0,0,-1,43.762998,35.872995)" stroke-width=".398" stroke-linecap="round" stroke-linejoin="round" fill="none" stroke="#000000" d="M-3.985 0C-3.985-2.199-2.199-3.985 0-3.985"/>
<path transform="matrix(1,0,0,-1,43.762998,35.872995)" stroke-width=".398" stroke-linecap="round" stroke-linejoin="round" fill="none" stroke="#000000" d="M0-3.985C2.199-3.985 3.985-2.199 3.985 0"/>
<path transform="matrix(1,0,0,-1,43.762998,35.872995)" stroke-width=".398" stroke-linecap="round" stroke-linejoin="round" fill="none" stroke="#000000" d="M3.985 0C3.985 2.199 2.199 3.985 0 3.985"/>
<path transform="matrix(1,0,0,-1,12.536997,1.9999924)" stroke-width=".398" stroke-linecap="round" stroke-linejoin="round" fill="none" stroke="#000000" d="M27.141-33.873H17.179"/>
<use data-text="&#x2022;" xlink:href="#font_2_1" transform="matrix(9.9626,0,0,-9.9626,59.403997,38.335977)"/>
<path transform="matrix(1,0,0,-1,12.536997,1.9999848)" stroke-width=".398" stroke-linecap="round" stroke-linejoin="round" fill="none" stroke="#000000" d="M49.358-32.793V-21.021"/>
<path transform="matrix(1,0,0,-1,12.536997,1.9999848)" stroke-width=".398" stroke-linecap="round" stroke-linejoin="round" fill="none" stroke="#000000" d="M48.14-33.873H35.311"/>
<path transform="matrix(1,0,0,-1,12.536997,1.9999848)" stroke-width=".398" stroke-linecap="round" stroke-linejoin="round" fill="none" stroke="#000000" d="M67.49-33.873H50.576"/>
<path transform="matrix(1,0,0,-1,12.536997,1.9999848)" stroke-width=".398" stroke-linecap="round" stroke-linejoin="round" fill="none" stroke="#000000" d="M85.622-33.873H67.49"/>
<path transform="matrix(1,0,0,-1,12.536997,1.9999848)" stroke-width=".398" stroke-linecap="round" stroke-linejoin="round" fill="none" stroke="#000000" d="M99.669-33.873H85.622"/>
<path transform="matrix(1,0,0,-1,12.536997,1.9999848)" stroke-width=".398" stroke-linecap="round" stroke-linejoin="round" fill="none" stroke="#000000" d="M109.632-33.873H99.669"/>
<use data-text="2" xlink:href="#font_1_3" transform="matrix(6.9738,0,0,-6.9738,20.264996,55.055978)"/>
<use data-text="&#x2022;" xlink:href="#font_2_1" transform="matrix(9.9626,0,0,-9.9626,41.271997,55.27198)"/>
<path transform="matrix(1,0,0,-1,12.536997,1.9999848)" stroke-width=".398" stroke-linecap="round" stroke-linejoin="round" fill="none" stroke="#000000" d="M31.226-49.73V-37.958"/>
<path transform="matrix(1,0,0,-1,12.536997,1.9999848)" stroke-width=".398" stroke-linecap="round" stroke-linejoin="round" fill="none" stroke="#000000" d="M30.008-50.809H17.179"/>
<path transform="matrix(1,0,0,-1,12.536997,1.9999848)" stroke-width=".398" stroke-linecap="round" stroke-linejoin="round" fill="none" stroke="#000000" d="M49.358-50.809H32.444"/>
<path transform="matrix(1,0,0,-1,12.536997,1.9999848)" stroke-width=".398" stroke-linecap="round" stroke-linejoin="round" fill="none" stroke="#000000" d="M67.49-50.809H49.358"/>
<path transform="matrix(1,0,0,-1,12.536997,1.9999848)" stroke-width=".398" stroke-linecap="round" stroke-linejoin="round" fill="none" stroke="#000000" d="M85.622-50.809H67.49"/>
<path transform="matrix(1,0,0,-1,12.536997,1.9999848)" stroke-width=".398" stroke-linecap="round" stroke-linejoin="round" fill="none" stroke="#000000" d="M99.669-50.809H85.622"/>
<path transform="matrix(1,0,0,-1,12.536997,1.9999848)" stroke-width=".398" stroke-linecap="round" stroke-linejoin="round" fill="none" stroke="#000000" d="M109.632-50.809H99.669"/>
<use data-text="3" xlink:href="#font_1_4" transform="matrix(6.9738,0,0,-6.9738,20.264996,71.99298)"/>
<path transform="matrix(1,0,0,-1,12.536997,1.9999848)" stroke-width=".398" stroke-linecap="round" stroke-linejoin="round" fill="none" stroke="#000000" d="M31.226-67.746H17.179"/>
<path transform="matrix(1,0,0,-1,61.894998,69.74599)" stroke-width=".398" stroke-linecap="round" stroke-linejoin="round" fill="none" stroke="#000000" d="M-3.885 0H3.885"/>
<path transform="matrix(1,0,0,-1,61.894998,69.74599)" stroke-width=".398" stroke-linecap="round" stroke-linejoin="round" fill="none" stroke="#000000" d="M0-3.885V3.885"/>
<path transform="matrix(1,0,0,-1,61.894998,69.74599)" stroke-width=".398" stroke-linecap="round" stroke-linejoin="round" fill="none" stroke="#000000" d="M0 3.985C-2.199 3.985-3.985 2.199-3.985 0"/>
<path transform="matrix(1,0,0,-1,61.894998,69.74599)" stroke-width=".398" stroke-linecap="round" stroke-linejoin="round" fill="none" stroke="#000000" d="M-3.985 0C-3.985-2.199-2.199-3.985 0-3.985"/>
<path transform="matrix(1,0,0,-1,61.894998,69.74599)" stroke-width=".398" stroke-linecap="round" stroke-linejoin="round" fill="none" stroke="#000000" d="M0-3.985C2.199-3.985 3.985-2.199 3.985 0"/>
<path transform="matrix(1,0,0,-1,61.894998,69.74599)" stroke-width=".398" stroke-linecap="round" stroke-linejoin="round" fill="none" stroke="#000000" d="M3.985 0C3.985 2.199 2.199 3.985 0 3.985"/>
<path transform="matrix(1,0,0,-1,12.536995,1.9999848)" stroke-width=".398" stroke-linecap="round" stroke-linejoin="round" fill="none" stroke="#000000" d="M45.273-67.746H31.226"/>
<use data-text="&#x2022;" xlink:href="#font_2_1" transform="matrix(9.9626,0,0,-9.9626,77.535999,72.20898)"/>
<path transform="matrix(1,0,0,-1,12.536995,1.9999848)" stroke-width=".398" stroke-linecap="round" stroke-linejoin="round" fill="none" stroke="#000000" d="M67.49-69.101V-80.598"/>
<path transform="matrix(1,0,0,-1,12.536995,1.9999848)" stroke-width=".398" stroke-linecap="round" stroke-linejoin="round" fill="none" stroke="#000000" d="M66.272-67.746H53.443"/>
<path transform="matrix(1,0,0,-1,12.536995,1.9999848)" stroke-width=".398" stroke-linecap="round" stroke-linejoin="round" fill="none" stroke="#000000" d="M85.622-67.746H68.708"/>
<path transform="matrix(1,0,0,-1,12.536995,1.9999848)" stroke-width=".398" stroke-linecap="round" stroke-linejoin="round" fill="none" stroke="#000000" d="M99.669-67.746H85.622"/>
<path transform="matrix(1,0,0,-1,12.536995,1.9999848)" stroke-width=".398" stroke-linecap="round" stroke-linejoin="round" fill="none" stroke="#000000" d="M109.632-67.746H99.669"/>
<use data-text="4" xlink:href="#font_1_5" transform="matrix(6.9738,0,0,-6.9738,20.264996,88.92898)"/>
<path transform="matrix(1,0,0,-1,43.762998,86.68198)" stroke-width=".398" stroke-linecap="round" stroke-linejoin="round" fill="none" stroke="#000000" d="M-3.885 0H3.885"/>
<path transform="matrix(1,0,0,-1,43.762998,86.68198)" stroke-width=".398" stroke-linecap="round" stroke-linejoin="round" fill="none" stroke="#000000" d="M0-3.885V3.885"/>
<path transform="matrix(1,0,0,-1,43.762998,86.68198)" stroke-width=".398" stroke-linecap="round" stroke-linejoin="round" fill="none" stroke="#000000" d="M0 3.985C-2.199 3.985-3.985 2.199-3.985 0"/>
<path transform="matrix(1,0,0,-1,43.762998,86.68198)" stroke-width=".398" stroke-linecap="round" stroke-linejoin="round" fill="none" stroke="#000000" d="M-3.985 0C-3.985-2.199-2.199-3.985 0-3.985"/>
<path transform="matrix(1,0,0,-1,43.762998,86.68198)" stroke-width=".398" stroke-linecap="round" stroke-linejoin="round" fill="none" stroke="#000000" d="M0-3.985C2.199-3.985 3.985-2.199 3.985 0"/>
<path transform="matrix(1,0,0,-1,43.762998,86.68198)" stroke-width=".398" stroke-linecap="round" stroke-linejoin="round" fill="none" stroke="#000000" d="M3.985 0C3.985 2.199 2.199 3.985 0 3.985"/>
<path transform="matrix(1,0,0,-1,12.536997,1.9999771)" stroke-width=".398" stroke-linecap="round" stroke-linejoin="round" fill="none" stroke="#000000" d="M27.141-84.682H17.179"/>
<path transform="matrix(1,0,0,-1,12.536997,1.9999771)" stroke-width=".398" stroke-linecap="round" stroke-linejoin="round" fill="none" stroke="#000000" d="M49.358-84.682H35.311"/>
<path transform="matrix(1,0,0,-1,80.02699,86.68198)" stroke-width=".398" stroke-linecap="round" stroke-linejoin="round" fill="none" stroke="#000000" d="M-3.885 0H3.885"/>
<path transform="matrix(1,0,0,-1,80.02699,86.68198)" stroke-width=".398" stroke-linecap="round" stroke-linejoin="round" fill="none" stroke="#000000" d="M0-3.885V3.885"/>
<path transform="matrix(1,0,0,-1,80.02699,86.68198)" stroke-width=".398" stroke-linecap="round" stroke-linejoin="round" fill="none" stroke="#000000" d="M0 3.985C-2.199 3.985-3.985 2.199-3.985 0"/>
<path transform="matrix(1,0,0,-1,80.02699,86.68198)" stroke-width=".398" stroke-linecap="round" stroke-linejoin="round" fill="none" stroke="#000000" d="M-3.985 0C-3.985-2.199-2.199-3.985 0-3.985"/>
<path transform="matrix(1,0,0,-1,80.02699,86.68198)" stroke-width=".398" stroke-linecap="round" stroke-linejoin="round" fill="none" stroke="#000000" d="M0-3.985C2.199-3.985 3.985-2.199 3.985 0"/>
<path transform="matrix(1,0,0,-1,80.02699,86.68198)" stroke-width=".398" stroke-linecap="round" stroke-linejoin="round" fill="none" stroke="#000000" d="M3.985 0C3.985 2.199 2.199 3.985 0 3.985"/>
<path transform="matrix(1,0,0,-1,12.536995,1.9999771)" stroke-width=".398" stroke-linecap="round" stroke-linejoin="round" fill="none" stroke="#000000" d="M63.405-84.682H49.358"/>
<use data-text="&#x2022;" xlink:href="#font_2_1" transform="matrix(9.9626,0,0,-9.9626,95.66799,89.14498)"/>
<path transform="matrix(1,0,0,-1,12.536995,1.9999848)" stroke-width=".398" stroke-linecap="round" stroke-linejoin="round" fill="none" stroke="#000000" d="M85.622-83.603V-21.021"/>
<path transform="matrix(1,0,0,-1,12.536995,1.9999848)" stroke-width=".398" stroke-linecap="round" stroke-linejoin="round" fill="none" stroke="#000000" d="M84.404-84.682H71.575"/>
<path transform="matrix(1,0,0,-1,12.536995,1.9999848)" stroke-width=".398" stroke-linecap="round" stroke-linejoin="round" fill="none" stroke="#000000" d="M99.669-84.682H86.839"/>
<path transform="matrix(1,0,0,-1,12.536995,1.9999848)" stroke-width=".398" stroke-linecap="round" stroke-linejoin="round" fill="none" stroke="#000000" d="M109.632-84.682H99.669"/>
<use data-text="5" xlink:href="#font_1_6" transform="matrix(6.9738,0,0,-6.9738,20.264996,105.86598)"/>
<use data-text="&#x2022;" xlink:href="#font_2_1" transform="matrix(9.9626,0,0,-9.9626,41.271997,106.08198)"/>
<path transform="matrix(1,0,0,-1,12.536995,1.9999848)" stroke-width=".398" stroke-linecap="round" stroke-linejoin="round" fill="none" stroke="#000000" d="M31.226-100.539V-88.767"/>
<path transform="matrix(1,0,0,-1,12.536995,1.9999848)" stroke-width=".398" stroke-linecap="round" stroke-linejoin="round" fill="none" stroke="#000000" d="M30.008-101.619H17.179"/>
<path transform="matrix(1,0,0,-1,12.536995,1.9999848)" stroke-width=".398" stroke-linecap="round" stroke-linejoin="round" fill="none" stroke="#000000" d="M49.358-101.619H32.444"/>
<path transform="matrix(1,0,0,-1,12.536995,1.9999848)" stroke-width=".398" stroke-linecap="round" stroke-linejoin="round" fill="none" stroke="#000000" d="M67.49-101.619H49.358"/>
<path transform="matrix(1,0,0,-1,12.536995,1.9999848)" stroke-width=".398" stroke-linecap="round" stroke-linejoin="round" fill="none" stroke="#000000" d="M85.622-101.619H67.49"/>
<path transform="matrix(1,0,0,-1,12.536995,1.9999848)" stroke-width=".398" stroke-linecap="round" stroke-linejoin="round" fill="none" stroke="#000000" d="M99.669-101.619H85.622"/>
<path transform="matrix(1,0,0,-1,12.536995,1.9999848)" stroke-width=".398" stroke-linecap="round" stroke-linejoin="round" fill="none" stroke="#000000" d="M109.632-101.619H99.669"/>
<use data-text="6" xlink:href="#font_1_7" transform="matrix(6.9738,0,0,-6.9738,20.264996,122.80198)"/>
<path transform="matrix(1,0,0,-1,43.762998,120.55498)" stroke-width=".398" stroke-linecap="round" stroke-linejoin="round" fill="none" stroke="#000000" d="M-3.885 0H3.885"/>
<path transform="matrix(1,0,0,-1,43.762998,120.55498)" stroke-width=".398" stroke-linecap="round" stroke-linejoin="round" fill="none" stroke="#000000" d="M0-3.885V3.885"/>
<path transform="matrix(1,0,0,-1,43.762998,120.55498)" stroke-width=".398" stroke-linecap="round" stroke-linejoin="round" fill="none" stroke="#000000" d="M0 3.985C-2.199 3.985-3.985 2.199-3.985 0"/>
<path transform="matrix(1,0,0,-1,43.762998,120.55498)" stroke-width=".398" stroke-linecap="round" stroke-linejoin="round" fill="none" stroke="#000000" d="M-3.985 0C-3.985-2.199-2.199-3.985 0-3.985"/>
<path transform="matrix(1,0,0,-1,43.762998,120.55498)" stroke-width=".398" stroke-linecap="round" stroke-linejoin="round" fill="none" stroke="#000000" d="M0-3.985C2.199-3.985 3.985-2.199 3.985 0"/>
<path transform="matrix(1,0,0,-1,43.762998,120.55498)" stroke-width=".398" stroke-linecap="round" stroke-linejoin="round" fill="none" stroke="#000000" d="M3.985 0C3.985 2.199 2.199 3.985 0 3.985"/>
<path transform="matrix(1,0,0,-1,12.536997,1.9999771)" stroke-width=".398" stroke-linecap="round" stroke-linejoin="round" fill="none" stroke="#000000" d="M27.141-118.555H17.179"/>
<use data-text="&#x2022;" xlink:href="#font_2_1" transform="matrix(9.9626,0,0,-9.9626,59.403997,123.017978)"/>
<path transform="matrix(1,0,0,-1,12.536997,1.9999848)" stroke-width=".398" stroke-linecap="round" stroke-linejoin="round" fill="none" stroke="#000000" d="M49.358-117.475V-71.83"/>
<path transform="matrix(1,0,0,-1,12.536997,1.9999848)" stroke-width=".398" stroke-linecap="round" stroke-linejoin="round" fill="none" stroke="#000000" d="M48.14-118.555H35.311"/>
<path transform="matrix(1,0,0,-1,12.536997,1.9999848)" stroke-width=".398" stroke-linecap="round" stroke-linejoin="round" fill="none" stroke="#000000" d="M67.49-118.555H50.576"/>
<path transform="matrix(1,0,0,-1,12.536997,1.9999848)" stroke-width=".398" stroke-linecap="round" stroke-linejoin="round" fill="none" stroke="#000000" d="M85.622-118.555H67.49"/>
<path transform="matrix(1,0,0,-1,12.536997,1.9999848)" stroke-width=".398" stroke-linecap="round" stroke-linejoin="round" fill="none" stroke="#000000" d="M99.669-118.555H85.622"/>
<path transform="matrix(1,0,0,-1,12.536997,1.9999848)" stroke-width=".398" stroke-linecap="round" stroke-linejoin="round" fill="none" stroke="#000000" d="M109.632-118.555H99.669"/>
<use data-text="8" xlink:href="#font_1_8" transform="matrix(6.9738,0,0,-6.9738,20.264996,139.73899)"/>
<use data-text="&#x2022;" xlink:href="#font_2_1" transform="matrix(9.9626,0,0,-9.9626,41.271997,139.95398)"/>
<path transform="matrix(1,0,0,-1,12.536997,1.9999848)" stroke-width=".398" stroke-linecap="round" stroke-linejoin="round" fill="none" stroke="#000000" d="M31.226-134.412V-122.64"/>
<path transform="matrix(1,0,0,-1,12.536997,1.9999848)" stroke-width=".398" stroke-linecap="round" stroke-linejoin="round" fill="none" stroke="#000000" d="M30.008-135.492H17.179"/>
<path transform="matrix(1,0,0,-1,12.536997,1.9999848)" stroke-width=".398" stroke-linecap="round" stroke-linejoin="round" fill="none" stroke="#000000" d="M49.358-135.492H32.444"/>
<path transform="matrix(1,0,0,-1,12.536997,1.9999848)" stroke-width=".398" stroke-linecap="round" stroke-linejoin="round" fill="none" stroke="#000000" d="M67.49-135.492H49.358"/>
<path transform="matrix(1,0,0,-1,12.536997,1.9999848)" stroke-width=".398" stroke-linecap="round" stroke-linejoin="round" fill="none" stroke="#000000" d="M85.622-135.492H67.49"/>
<path transform="matrix(1,0,0,-1,12.536997,1.9999848)" stroke-width=".398" stroke-linecap="round" stroke-linejoin="round" fill="none" stroke="#000000" d="M99.669-135.492H85.622"/>
<path transform="matrix(1,0,0,-1,12.536997,1.9999848)" stroke-width=".398" stroke-linecap="round" stroke-linejoin="round" fill="none" stroke="#000000" d="M109.632-135.492H99.669"/>
</svg>
