<svg xmlns="http://www.w3.org/2000/svg" xmlns:xlink="http://www.w3.org/1999/xlink" version="1.1" width="142.301" height="122.555" viewBox="0 0 142.301 122.555">
<defs>
<path id="font_1_1" d="M.5159912 .31925965C.5159912 .42918397 .5029907 .50813296 .45700074 .5780945 .42599488 .62405398 .3639984 .6640625 .28399659 .6640625 .051986696 .6640625 .051986696 .39120484 .051986696 .31925965 .051986696 .2472992 .051986696-.01953125 .28399659-.01953125 .5159912-.01953125 .5159912 .2472992 .5159912 .31925965M.28399659 .008468628C.23799134 .008468628 .1769867 .035446168 .15699768 .117385867 .14299011 .17634583 .14299011 .25830079 .14299011 .33224488 .14299011 .40519715 .14299011 .4811554 .1579895 .53611758 .1789856 .6150665 .24299622 .63604739 .28399659 .63604739 .33799745 .63604739 .3899994 .6030731 .4079895 .545105 .42399598 .4911499 .4249878 .41918946 .4249878 .33224488 .4249878 .25830079 .4249878 .18434143 .4119873 .12138367 .3919983 .030441285 .32398988 .008468628 .28399659 .008468628Z"/>
<path id="font_1_2" d="M.5289917 .1640625V.20005799H.41799928V.64582827C.41799928 .66682437 .41799928 .6738281 .3959961 .6738281 .38398744 .6738281 .37998963 .6738281 .36999513 .65982058L.038986207 .20005799V.1640625H.33299256V.08201599C.33299256 .04800415 .33299256 .035995485 .2519989 .035995485H.22499085V0C.2749939 .0019989014 .33898927 .0039978029 .375 .0039978029 .4119873 .0039978029 .47599793 .0019989014 .526001 0V.035995485H.49899293C.41799928 .035995485 .41799928 .04800415 .41799928 .08201599V.1640625H.5289917M.33999635 .5658722V.20005799H.07598877L.33999635 .5658722Z"/>
<path id="font_2_1" d="M.44400025 .24998474C.44400025 .35688783 .35499574 .44381715 .25 .44381715 .14199829 .44381715 .054992677 .35488893 .054992677 .24998474 .054992677 .14407349 .14199829 .056137086 .25 .056137086 .35499574 .056137086 .44400025 .14308167 .44400025 .24998474Z"/>
<path id="font_1_3" d="M.15499878 .5588074C.20599365 .5458069 .23599243 .5458069 .2519989 .5458069 .38398744 .5458069 .46199037 .6358032 .46199037 .6508026 .46199037 .6618042 .45498658 .6648102 .44999696 .6648102 .44799806 .6648102 .44599916 .6648102 .44198609 .6618042 .41799928 .6528015 .36499024 .6328125 .29100038 .6328125 .2630005 .6328125 .20999146 .6348114 .14498902 .6598053 .1349945 .6648102 .1329956 .6648102 .13198853 .6648102 .11898804 .6648102 .11898804 .6538086 .11898804 .6378021V.34251405C.11898804 .32548524 .11898804 .3134613 .1349945 .3134613 .14399719 .3134613 .14498902 .3154602 .15499878 .32748414 .19799805 .38259889 .25898744 .390625 .2939911 .390625 .35398866 .390625 .3809967 .34251405 .38598634 .33450318 .4039917 .30143739 .4099884 .26335145 .4099884 .20524597 .4099884 .17524719 .4099884 .116256717 .37998963 .07234192 .35499574 .03640747 .31199647 .012466431 .2630005 .012466431 .19799805 .012466431 .1309967 .04838562 .10598755 .11425781 .14399719 .11125183 .16299439 .13624573 .16299439 .16325379 .16299439 .20625305 .12599182 .21424866 .11299133 .21424866 .11099243 .21424866 .06298828 .21424866 .06298828 .1602478 .06298828 .07034302 .14498902-.01953125 .2649994-.01953125 .3929901-.01953125 .5049896 .07533264 .5049896 .20124817 .5049896 .31445313 .4189911 .41862489 .29499818 .41862489 .25099183 .41862489 .19898987 .4076233 .15499878 .36956788V.5588074Z"/>
<path id="font_1_4" d="M.1499939 .3274536C.1499939 .40945436 .15699768 .48303224 .19499207 .543869 .22898865 .5978699 .2829895 .63505557 .34700013 .63505557 .3769989 .63505557 .4169922 .62701418 .43699647 .5998688 .4119873 .5978699 .3909912 .5808716 .3909912 .5518799 .3909912 .5268707 .4079895 .5048828 .43798829 .5048828 .46798707 .5048828 .48599244 .5248718 .48599244 .5538788 .48599244 .6119385 .44400025 .6640625 .34498597 .6640625 .20098877 .6640625 .053985597 .5318756 .053985597 .3174591 .053985597 .05845642 .17599488-.01953125 .28599549-.01953125 .4079895-.01953125 .5139923 .07345581 .5139923 .20445252 .5139923 .33145143 .41299439 .42546083 .29599 .42546083 .21598816 .42546083 .17199707 .37245179 .1499939 .3274536M.28599549 .012466431C.23599243 .012466431 .19699097 .04145813 .17599488 .08546448 .16099549 .11546326 .15299988 .16545105 .15299988 .22544861 .15299988 .32244874 .21099854 .39746095 .29100038 .39746095 .33699037 .39746095 .36799623 .37945558 .3929901 .342453 .4169922 .30445863 .41799928 .26245118 .41799928 .20445252 .41799928 .14746094 .41799928 .10545349 .3909912 .066467288 .36698915 .031463624 .33499146 .012466431 .28599549 .012466431Z"/>
<path id="font_1_5" d="M.5349884 .6045227C.54499819 .6165161 .54499819 .6185303 .54499819 .64453127H.2829895C.24299622 .64453127 .23199463 .6455078 .19599915 .6484375 .14399719 .65234377 .14199829 .6592407 .13899231 .676239H.10499573L.069992069 .46250917H.10398865C.10598755 .47750855 .115997318 .54351809 .13198853 .5535126 .13999939 .55952456 .22099304 .55952456 .23599243 .55952456H.45399476C.42199708 .5175171 .37098695 .45550538 .34999085 .4275055 .21899414 .25549317 .20698548 .096466068 .20698548 .037460329 .20698548 .02645874 .20698548-.01953125 .2539978-.01953125 .3019867-.01953125 .3019867 .025466919 .3019867 .038467409V.07847595C.3019867 .27249146 .34199525 .36149598 .3849945 .41551209L.5349884 .6045227Z"/>
<path id="font_1_6" d="M.35499574 .36123658C.43299867 .3992157 .48298646 .44618226 .48298646 .5151367 .48298646 .6120758 .38198854 .6640625 .2849884 .6640625 .1749878 .6640625 .084991458 .5920868 .084991458 .4971466 .084991458 .45018006 .10699463 .41619874 .125 .39620973 .14299011 .37522889 .1499939 .37123109 .20899964 .33624269 .15299988 .31227113 .053985597 .25830079 .053985597 .15336609 .053985597 .042434694 .16899109-.01953125 .2829895-.01953125 .4099884-.01953125 .5139923 .061431886 .5139923 .1693573 .5139923 .23532105 .47499085 .29127503 .4169922 .32525636 .4039917 .33325196 .36898805 .35324098 .35499574 .36123658M.19198609 .45617677C.1659851 .4711609 .13798523 .49813844 .13798523 .53512576 .13798523 .5980835 .21099854 .63505557 .2829895 .63505557 .36099244 .63505557 .42999269 .5860901 .42999269 .5151367 .42999269 .42619325 .32598878 .3812256 .32398988 .3812256 .32199098 .3812256 .31999208 .3822174 .31298829 .3862152L.19198609 .45617677M.24099732 .31726075 .37799073 .23831177C.4039917 .22332764 .45399476 .19334412 .45399476 .13438416 .45399476 .059432985 .37098695 .012466431 .2849884 .012466431 .19299317 .012466431 .11399841 .07142639 .11399841 .15336609 .11399841 .22732544 .16899109 .2842865 .24099732 .31726075Z"/>
</defs>
<use data-text="0" xlink:href="#font_1_1" transform="matrix(6.9738,0,0,-6.9738,20.265,21.182999)"/>
<path transform="matrix(1,0,0,-1,12.537,2)" stroke-width=".398" stroke-linecap="round" stroke-linejoin="round" fill="none" stroke="#000000" d="M31.226-16.936H17.179"/>
<path transform="matrix(1,0,0,-1,12.537,2)" stroke-width=".398" stroke-linecap="round" stroke-linejoin="round" fill="none" stroke="#000000" d="M49.358-16.936H31.226"/>
<path transform="matrix(1,0,0,-1,12.537,2)" stroke-width=".398" stroke-linecap="round" stroke-linejoin="round" fill="none" stroke="#000000" d="M67.49-16.936H49.358"/>
<path transform="matrix(1,0,0,-1,98.159008,18.936)" stroke-width=".398" stroke-linecap="round" stroke-linejoin="round" fill="none" stroke="#000000" d="M-3.885 0H3.885"/>
<path transform="matrix(1,0,0,-1,98.159008,18.936)" stroke-width=".398" stroke-linecap="round" stroke-linejoin="round" fill="none" stroke="#000000" d="M0-3.885V3.885"/>
<path transform="matrix(1,0,0,-1,98.159008,18.936)" stroke-width=".398" stroke-linecap="round" stroke-linejoin="round" fill="none" stroke="#000000" d="M0 3.985C-2.199 3.985-3.985 2.199-3.985 0"/>
<path transform="matrix(1,0,0,-1,98.159008,18.936)" stroke-width=".398" stroke-linecap="round" stroke-linejoin="round" fill="none" stroke="#000000" d="M-3.985 0C-3.985-2.199-2.199-3.985 0-3.985"/>
<path transform="matrix(1,0,0,-1,98.159008,18.936)" stroke-width=".398" stroke-linecap="round" stroke-linejoin="round" fill="none" stroke="#000000" d="M0-3.985C2.199-3.985 3.985-2.199 3.985 0"/>
<path transform="matrix(1,0,0,-1,98.159008,18.936)" stroke-width=".398" stroke-linecap="round" stroke-linejoin="round" fill="none" stroke="#000000" d="M3.985 0C3.985 2.199 2.199 3.985 0 3.985"/>
<path transform="matrix(1,0,0,-1,12.537003,2)" stroke-width=".398" stroke-linecap="round" stroke-linejoin="round" fill="none" stroke="#000000" d="M81.537-16.936H67.49"/>
<path transform="matrix(1,0,0,-1,116.291,18.936)" stroke-width=".398" stroke-linecap="round" stroke-linejoin="round" fill="none" stroke="#000000" d="M-3.885 0H3.885"/>
<path transform="matrix(1,0,0,-1,116.291,18.936)" stroke-width=".398" stroke-linecap="round" stroke-linejoin="round" fill="none" stroke="#000000" d="M0-3.885V3.885"/>
<path transform="matrix(1,0,0,-1,116.291,18.936)" stroke-width=".398" stroke-linecap="round" stroke-linejoin="round" fill="none" stroke="#000000" d="M0 3.985C-2.199 3.985-3.985 2.199-3.985 0"/>
<path transform="matrix(1,0,0,-1,116.291,18.936)" stroke-width=".398" stroke-linecap="round" stroke-linejoin="round" fill="none" stroke="#000000" d="M-3.985 0C-3.985-2.199-2.199-3.985 0-3.985"/>
<path transform="matrix(1,0,0,-1,116.291,18.936)" stroke-width=".398" stroke-linecap="round" stroke-linejoin="round" fill="none" stroke="#000000" d="M0-3.985C2.199-3.985 3.985-2.199 3.985 0"/>
<path transform="matrix(1,0,0,-1,116.291,18.936)" stroke-width=".398" stroke-linecap="round" stroke-linejoin="round" fill="none" stroke="#000000" d="M3.985 0C3.985 2.199 2.199 3.985 0 3.985"/>
<path transform="matrix(1,0,0,-1,12.537003,2)" stroke-width=".398" stroke-linecap="round" stroke-linejoin="round" fill="none" stroke="#000000" d="M99.669-16.936H89.706"/>
<path transform="matrix(1,0,0,-1,12.537003,2)" stroke-width=".398" stroke-linecap="round" stroke-linejoin="round" fill="none" stroke="#000000" d="M117.801-16.936H107.838"/>
<path transform="matrix(1,0,0,-1,12.537003,2)" stroke-width=".398" stroke-linecap="round" stroke-linejoin="round" fill="none" stroke="#000000" d="M127.764-16.936H117.801"/>
<use data-text="4" xlink:href="#font_1_2" transform="matrix(6.9738,0,0,-6.9738,20.265004,38.120004)"/>
<path transform="matrix(1,0,0,-1,12.537003,2)" stroke-width=".398" stroke-linecap="round" stroke-linejoin="round" fill="none" stroke="#000000" d="M31.226-33.873H17.179"/>
<path transform="matrix(1,0,0,-1,12.537003,2)" stroke-width=".398" stroke-linecap="round" stroke-linejoin="round" fill="none" stroke="#000000" d="M49.358-33.873H31.226"/>
<path transform="matrix(1,0,0,-1,80.027,35.873)" stroke-width=".398" stroke-linecap="round" stroke-linejoin="round" fill="none" stroke="#000000" d="M-3.885 0H3.885"/>
<path transform="matrix(1,0,0,-1,80.027,35.873)" stroke-width=".398" stroke-linecap="round" stroke-linejoin="round" fill="none" stroke="#000000" d="M0-3.885V3.885"/>
<path transform="matrix(1,0,0,-1,80.027,35.873)" stroke-width=".398" stroke-linecap="round" stroke-linejoin="round" fill="none" stroke="#000000" d="M0 3.985C-2.199 3.985-3.985 2.199-3.985 0"/>
<path transform="matrix(1,0,0,-1,80.027,35.873)" stroke-width=".398" stroke-linecap="round" stroke-linejoin="round" fill="none" stroke="#000000" d="M-3.985 0C-3.985-2.199-2.199-3.985 0-3.985"/>
<path transform="matrix(1,0,0,-1,80.027,35.873)" stroke-width=".398" stroke-linecap="round" stroke-linejoin="round" fill="none" stroke="#000000" d="M0-3.985C2.199-3.985 3.985-2.199 3.985 0"/>
<path transform="matrix(1,0,0,-1,80.027,35.873)" stroke-width=".398" stroke-linecap="round" stroke-linejoin="round" fill="none" stroke="#000000" d="M3.985 0C3.985 2.199 2.199 3.985 0 3.985"/>
<path transform="matrix(1,0,0,-1,12.537003,2)" stroke-width=".398" stroke-linecap="round" stroke-linejoin="round" fill="none" stroke="#000000" d="M63.405-33.873H49.358"/>
<path transform="matrix(1,0,0,-1,12.537003,2)" stroke-width=".398" stroke-linecap="round" stroke-linejoin="round" fill="none" stroke="#000000" d="M85.622-33.873H71.575"/>
<use data-text="&#x2022;" xlink:href="#font_2_1" transform="matrix(9.9626,0,0,-9.9626,113.8,38.336)"/>
<path transform="matrix(1,0,0,-1,12.537003,2)" stroke-width=".398" stroke-linecap="round" stroke-linejoin="round" fill="none" stroke="#000000" d="M103.754-32.793V-21.021"/>
<path transform="matrix(1,0,0,-1,12.537003,2)" stroke-width=".398" stroke-linecap="round" stroke-linejoin="round" fill="none" stroke="#000000" d="M102.536-33.873H85.622"/>
<path transform="matrix(1,0,0,-1,12.537003,2)" stroke-width=".398" stroke-linecap="round" stroke-linejoin="round" fill="none" stroke="#000000" d="M117.801-33.873H104.971"/>
<path transform="matrix(1,0,0,-1,12.537003,2)" stroke-width=".398" stroke-linecap="round" stroke-linejoin="round" fill="none" stroke="#000000" d="M127.764-33.873H117.801"/>
<use data-text="5" xlink:href="#font_1_3" transform="matrix(6.9738,0,0,-6.9738,20.265004,55.056)"/>
<path transform="matrix(1,0,0,-1,12.537003,2)" stroke-width=".398" stroke-linecap="round" stroke-linejoin="round" fill="none" stroke="#000000" d="M31.226-50.809H17.179"/>
<path transform="matrix(1,0,0,-1,61.895006,52.809)" stroke-width=".398" stroke-linecap="round" stroke-linejoin="round" fill="none" stroke="#000000" d="M-3.885 0H3.885"/>
<path transform="matrix(1,0,0,-1,61.895006,52.809)" stroke-width=".398" stroke-linecap="round" stroke-linejoin="round" fill="none" stroke="#000000" d="M0-3.885V3.885"/>
<path transform="matrix(1,0,0,-1,61.895006,52.809)" stroke-width=".398" stroke-linecap="round" stroke-linejoin="round" fill="none" stroke="#000000" d="M0 3.985C-2.199 3.985-3.985 2.199-3.985 0"/>
<path transform="matrix(1,0,0,-1,61.895006,52.809)" stroke-width=".398" stroke-linecap="round" stroke-linejoin="round" fill="none" stroke="#000000" d="M-3.985 0C-3.985-2.199-2.199-3.985 0-3.985"/>
<path transform="matrix(1,0,0,-1,61.895006,52.809)" stroke-width=".398" stroke-linecap="round" stroke-linejoin="round" fill="none" stroke="#000000" d="M0-3.985C2.199-3.985 3.985-2.199 3.985 0"/>
<path transform="matrix(1,0,0,-1,61.895006,52.809)" stroke-width=".398" stroke-linecap="round" stroke-linejoin="round" fill="none" stroke="#000000" d="M3.985 0C3.985 2.199 2.199 3.985 0 3.985"/>
<path transform="matrix(1,0,0,-1,12.537003,2)" stroke-width=".398" stroke-linecap="round" stroke-linejoin="round" fill="none" stroke="#000000" d="M45.273-50.809H31.226"/>
<use data-text="&#x2022;" xlink:href="#font_2_1" transform="matrix(9.9626,0,0,-9.9626,77.536,55.272005)"/>
<path transform="matrix(1,0,0,-1,12.537003,2)" stroke-width=".398" stroke-linecap="round" stroke-linejoin="round" fill="none" stroke="#000000" d="M67.49-49.73V-37.958"/>
<path transform="matrix(1,0,0,-1,12.537003,2)" stroke-width=".398" stroke-linecap="round" stroke-linejoin="round" fill="none" stroke="#000000" d="M66.272-50.809H53.443"/>
<path transform="matrix(1,0,0,-1,12.537003,2)" stroke-width=".398" stroke-linecap="round" stroke-linejoin="round" fill="none" stroke="#000000" d="M85.622-50.809H68.708"/>
<path transform="matrix(1,0,0,-1,12.537003,2)" stroke-width=".398" stroke-linecap="round" stroke-linejoin="round" fill="none" stroke="#000000" d="M103.754-50.809H85.622"/>
<path transform="matrix(1,0,0,-1,12.537003,2)" stroke-width=".398" stroke-linecap="round" stroke-linejoin="round" fill="none" stroke="#000000" d="M117.801-50.809H103.754"/>
<path transform="matrix(1,0,0,-1,12.537003,2)" stroke-width=".398" stroke-linecap="round" stroke-linejoin="round" fill="none" stroke="#000000" d="M127.764-50.809H117.801"/>
<use data-text="6" xlink:href="#font_1_4" transform="matrix(6.9738,0,0,-6.9738,20.265004,71.993)"/>
<path transform="matrix(1,0,0,-1,43.763006,69.746)" stroke-width=".398" stroke-linecap="round" stroke-linejoin="round" fill="none" stroke="#000000" d="M-3.885 0H3.885"/>
<path transform="matrix(1,0,0,-1,43.763006,69.746)" stroke-width=".398" stroke-linecap="round" stroke-linejoin="round" fill="none" stroke="#000000" d="M0-3.885V3.885"/>
<path transform="matrix(1,0,0,-1,43.763006,69.746)" stroke-width=".398" stroke-linecap="round" stroke-linejoin="round" fill="none" stroke="#000000" d="M0 3.985C-2.199 3.985-3.985 2.199-3.985 0"/>
<path transform="matrix(1,0,0,-1,43.763006,69.746)" stroke-width=".398" stroke-linecap="round" stroke-linejoin="round" fill="none" stroke="#000000" d="M-3.985 0C-3.985-2.199-2.199-3.985 0-3.985"/>
<path transform="matrix(1,0,0,-1,43.763006,69.746)" stroke-width=".398" stroke-linecap="round" stroke-linejoin="round" fill="none" stroke="#000000" d="M0-3.985C2.199-3.985 3.985-2.199 3.985 0"/>
<path transform="matrix(1,0,0,-1,43.763006,69.746)" stroke-width=".398" stroke-linecap="round" stroke-linejoin="round" fill="none" stroke="#000000" d="M3.985 0C3.985 2.199 2.199 3.985 0 3.985"/>
<path transform="matrix(1,0,0,-1,12.537004,2)" stroke-width=".398" stroke-linecap="round" stroke-linejoin="round" fill="none" stroke="#000000" d="M27.141-67.746H17.179"/>
<path transform="matrix(1,0,0,-1,12.537004,2)" stroke-width=".398" stroke-linecap="round" stroke-linejoin="round" fill="none" stroke="#000000" d="M49.358-67.746H35.311"/>
<path transform="matrix(1,0,0,-1,12.537004,2)" stroke-width=".398" stroke-linecap="round" stroke-linejoin="round" fill="none" stroke="#000000" d="M67.49-67.746H49.358"/>
<use data-text="&#x2022;" xlink:href="#font_2_1" transform="matrix(9.9626,0,0,-9.9626,95.66801,72.209)"/>
<path transform="matrix(1,0,0,-1,12.537004,2)" stroke-width=".398" stroke-linecap="round" stroke-linejoin="round" fill="none" stroke="#000000" d="M85.622-66.666V-21.021"/>
<path transform="matrix(1,0,0,-1,12.537004,2)" stroke-width=".398" stroke-linecap="round" stroke-linejoin="round" fill="none" stroke="#000000" d="M84.404-67.746H67.49"/>
<path transform="matrix(1,0,0,-1,12.537004,2)" stroke-width=".398" stroke-linecap="round" stroke-linejoin="round" fill="none" stroke="#000000" d="M103.754-67.746H86.839"/>
<path transform="matrix(1,0,0,-1,12.537004,2)" stroke-width=".398" stroke-linecap="round" stroke-linejoin="round" fill="none" stroke="#000000" d="M117.801-67.746H103.754"/>
<path transform="matrix(1,0,0,-1,12.537004,2)" stroke-width=".398" stroke-linecap="round" stroke-linejoin="round" fill="none" stroke="#000000" d="M127.764-67.746H117.801"/>
<use data-text="7" xlink:href="#font_1_5" transform="matrix(6.9738,0,0,-6.9738,20.265004,88.929)"/>
<path transform="matrix(1,0,0,-1,12.537004,2)" stroke-width=".398" stroke-linecap="round" stroke-linejoin="round" fill="none" stroke="#000000" d="M31.226-84.682H17.179"/>
<use data-text="&#x2022;" xlink:href="#font_2_1" transform="matrix(9.9626,0,0,-9.9626,59.404005,89.145008)"/>
<path transform="matrix(1,0,0,-1,12.537004,2)" stroke-width=".398" stroke-linecap="round" stroke-linejoin="round" fill="none" stroke="#000000" d="M49.358-83.603V-54.894"/>
<path transform="matrix(1,0,0,-1,12.537004,2)" stroke-width=".398" stroke-linecap="round" stroke-linejoin="round" fill="none" stroke="#000000" d="M48.14-84.682H31.226"/>
<path transform="matrix(1,0,0,-1,12.537004,2)" stroke-width=".398" stroke-linecap="round" stroke-linejoin="round" fill="none" stroke="#000000" d="M67.49-84.682H50.576"/>
<path transform="matrix(1,0,0,-1,12.537004,2)" stroke-width=".398" stroke-linecap="round" stroke-linejoin="round" fill="none" stroke="#000000" d="M85.622-84.682H67.49"/>
<path transform="matrix(1,0,0,-1,12.537004,2)" stroke-width=".398" stroke-linecap="round" stroke-linejoin="round" fill="none" stroke="#000000" d="M103.754-84.682H85.622"/>
<path transform="matrix(1,0,0,-1,12.537004,2)" stroke-width=".398" stroke-linecap="round" stroke-linejoin="round" fill="none" stroke="#000000" d="M117.801-84.682H103.754"/>
<path transform="matrix(1,0,0,-1,12.537004,2)" stroke-width=".398" stroke-linecap="round" stroke-linejoin="round" fill="none" stroke="#000000" d="M127.764-84.682H117.801"/>
<use data-text="8" xlink:href="#font_1_6" transform="matrix(6.9738,0,0,-6.9738,20.265004,105.866)"/>
<use data-text="&#x2022;" xlink:href="#font_2_1" transform="matrix(9.9626,0,0,-9.9626,41.272005,106.081)"/>
<path transform="matrix(1,0,0,-1,12.537004,2)" stroke-width=".398" stroke-linecap="round" stroke-linejoin="round" fill="none" stroke="#000000" d="M31.226-100.539V-71.83"/>
<path transform="matrix(1,0,0,-1,12.537004,2)" stroke-width=".398" stroke-linecap="round" stroke-linejoin="round" fill="none" stroke="#000000" d="M30.008-101.619H17.179"/>
<path transform="matrix(1,0,0,-1,12.537004,2)" stroke-width=".398" stroke-linecap="round" stroke-linejoin="round" fill="none" stroke="#000000" d="M49.358-101.619H32.444"/>
<path transform="matrix(1,0,0,-1,12.537004,2)" stroke-width=".398" stroke-linecap="round" stroke-linejoin="round" fill="none" stroke="#000000" d="M67.49-101.619H49.358"/>
<path transform="matrix(1,0,0,-1,12.537004,2)" stroke-width=".398" stroke-linecap="round" stroke-linejoin="round" fill="none" stroke="#000000" d="M85.622-101.619H67.49"/>
<path transform="matrix(1,0,0,-1,12.537004,2)" stroke-width=".398" stroke-linecap="round" stroke-linejoin="round" fill="none" stroke="#000000" d="M103.754-101.619H85.622"/>
<path transform="matrix(1,0,0,-1,12.537004,2)" stroke-width=".398" stroke-linecap="round" stroke-linejoin="round" fill="none" stroke="#000000" d="M117.801-101.619H103.754"/>
<path transform="matrix(1,0,0,-1,12.537004,2)" stroke-width=".398" stroke-linecap="round" stroke-linejoin="round" fill="none" stroke="#000000" d="M127.764-101.619H117.801"/>
</svg>
