<svg xmlns="http://www.w3.org/2000/svg" xmlns:xlink="http://www.w3.org/1999/xlink" version="1.1" width="142.301" height="139.492" viewBox="0 0 142.301 139.492">
<defs>
<path id="font_1_1" d="M.5159912 .31925965C.5159912 .42918397 .5029907 .50813296 .45700074 .5780945 .42599488 .62405398 .3639984 .6640625 .28399659 .6640625 .051986696 .6640625 .051986696 .39120484 .051986696 .31925965 .051986696 .2472992 .051986696-.01953125 .28399659-.01953125 .5159912-.01953125 .5159912 .2472992 .5159912 .31925965M.28399659 .008468628C.23799134 .008468628 .1769867 .035446168 .15699768 .117385867 .14299011 .17634583 .14299011 .25830079 .14299011 .33224488 .14299011 .40519715 .14299011 .4811554 .1579895 .53611758 .1789856 .6150665 .24299622 .63604739 .28399659 .63604739 .33799745 .63604739 .3899994 .6030731 .4079895 .545105 .42399598 .4911499 .4249878 .41918946 .4249878 .33224488 .4249878 .25830079 .4249878 .18434143 .4119873 .12138367 .3919983 .030441285 .32398988 .008468628 .28399659 .008468628Z"/>
<path id="font_1_2" d="M.33499146 .63612368C.33499146 .6630554 .33299256 .6640625 .30499269 .6640625 .24099732 .6014404 .1499939 .6004486 .10899353 .6004486V.5644531C.1329956 .5644531 .19898987 .5644531 .2539978 .592453V.08203125C.2539978 .04899597 .2539978 .035995485 .1539917 .035995485H.115997318V0C.13398743 .0009918213 .25698854 .0039978029 .2939911 .0039978029 .32499696 .0039978029 .45098878 .0009918213 .47299195 0V.035995485H.43499757C.33499146 .035995485 .33499146 .04899597 .33499146 .08203125V.63612368Z"/>
<path id="font_2_1" d="M.44400025 .24998474C.44400025 .35688783 .35499574 .44381715 .25 .44381715 .14199829 .44381715 .054992677 .35488893 .054992677 .24998474 .054992677 .14407349 .14199829 .056137086 .25 .056137086 .35499574 .056137086 .44400025 .14308167 .44400025 .24998474Z"/>
<path id="font_1_3" d="M.272995 .33428956C.35099793 .33428956 .40699769 .2803192 .40699769 .1733551 .40699769 .04940796 .33499146 .012466431 .2769928 .012466431 .23699951 .012466431 .14898682 .0234375 .10699463 .082351688 .1539917 .084350589 .16499329 .11735535 .16499329 .13835144 .16499329 .17034912 .14099121 .19335938 .10998535 .19335938 .08198547 .19335938 .053985597 .17634583 .053985597 .13534546 .053985597 .041412355 .1579895-.01953125 .2789917-.01953125 .41799928-.01953125 .5139923 .07336426 .5139923 .1733551 .5139923 .2513275 .44999696 .32929994 .33999635 .35229493 .44499208 .39024354 .48298646 .4650879 .48298646 .5260773 .48298646 .60505679 .3919983 .6640625 .2809906 .6640625 .16999817 .6640625 .084991458 .61006167 .084991458 .5300751 .084991458 .49606324 .10699463 .47706605 .13699341 .47706605 .16799927 .47706605 .18798828 .5000763 .18798828 .5280762 .18798828 .5570679 .16799927 .57806399 .13699341 .5800781 .17199707 .62405398 .24099732 .63505557 .27799989 .63505557 .32299806 .63505557 .38598634 .6130676 .38598634 .5260773 .38598634 .48406983 .37199403 .43814088 .34599305 .4072113 .31298829 .36927796 .2849884 .3672943 .23498535 .36428834 .20999146 .3623047 .20799256 .3623047 .20298767 .3612976 .20098877 .3612976 .19299317 .3592987 .19299317 .34829713 .19299317 .33428956 .20199585 .33428956 .21899414 .33428956H.272995Z"/>
<path id="font_1_4" d="M.5289917 .1640625V.20005799H.41799928V.64582827C.41799928 .66682437 .41799928 .6738281 .3959961 .6738281 .38398744 .6738281 .37998963 .6738281 .36999513 .65982058L.038986207 .20005799V.1640625H.33299256V.08201599C.33299256 .04800415 .33299256 .035995485 .2519989 .035995485H.22499085V0C.2749939 .0019989014 .33898927 .0039978029 .375 .0039978029 .4119873 .0039978029 .47599793 .0019989014 .526001 0V.035995485H.49899293C.41799928 .035995485 .41799928 .04800415 .41799928 .08201599V.1640625H.5289917M.33999635 .5658722V.20005799H.07598877L.33999635 .5658722Z"/>
<path id="font_1_5" d="M.1499939 .3274536C.1499939 .40945436 .15699768 .48303224 .19499207 .543869 .22898865 .5978699 .2829895 .63505557 .34700013 .63505557 .3769989 .63505557 .4169922 .62701418 .43699647 .5998688 .4119873 .5978699 .3909912 .5808716 .3909912 .5518799 .3909912 .5268707 .4079895 .5048828 .43798829 .5048828 .46798707 .5048828 .48599244 .5248718 .48599244 .5538788 .48599244 .6119385 .44400025 .6640625 .34498597 .6640625 .20098877 .6640625 .053985597 .5318756 .053985597 .3174591 .053985597 .05845642 .17599488-.01953125 .28599549-.01953125 .4079895-.01953125 .5139923 .07345581 .5139923 .20445252 .5139923 .33145143 .41299439 .42546083 .29599 .42546083 .21598816 .42546083 .17199707 .37245179 .1499939 .3274536M.28599549 .012466431C.23599243 .012466431 .19699097 .04145813 .17599488 .08546448 .16099549 .11546326 .15299988 .16545105 .15299988 .22544861 .15299988 .32244874 .21099854 .39746095 .29100038 .39746095 .33699037 .39746095 .36799623 .37945558 .3929901 .342453 .4169922 .30445863 .41799928 .26245118 .41799928 .20445252 .41799928 .14746094 .41799928 .10545349 .3909912 .066467288 .36698915 .031463624 .33499146 .012466431 .28599549 .012466431Z"/>
<path id="font_1_6" d="M.5349884 .6045227C.54499819 .6165161 .54499819 .6185303 .54499819 .64453127H.2829895C.24299622 .64453127 .23199463 .6455078 .19599915 .6484375 .14399719 .65234377 .14199829 .6592407 .13899231 .676239H.10499573L.069992069 .46250917H.10398865C.10598755 .47750855 .115997318 .54351809 .13198853 .5535126 .13999939 .55952456 .22099304 .55952456 .23599243 .55952456H.45399476C.42199708 .5175171 .37098695 .45550538 .34999085 .4275055 .21899414 .25549317 .20698548 .096466068 .20698548 .037460329 .20698548 .02645874 .20698548-.01953125 .2539978-.01953125 .3019867-.01953125 .3019867 .025466919 .3019867 .038467409V.07847595C.3019867 .27249146 .34199525 .36149598 .3849945 .41551209L.5349884 .6045227Z"/>
<path id="font_1_7" d="M.35499574 .36123658C.43299867 .3992157 .48298646 .44618226 .48298646 .5151367 .48298646 .6120758 .38198854 .6640625 .2849884 .6640625 .1749878 .6640625 .084991458 .5920868 .084991458 .4971466 .084991458 .45018006 .10699463 .41619874 .125 .39620973 .14299011 .37522889 .1499939 .37123109 .20899964 .33624269 .15299988 .31227113 .053985597 .25830079 .053985597 .15336609 .053985597 .042434694 .16899109-.01953125 .2829895-.01953125 .4099884-.01953125 .5139923 .061431886 .5139923 .1693573 .5139923 .23532105 .47499085 .29127503 .4169922 .32525636 .4039917 .33325196 .36898805 .35324098 .35499574 .36123658M.19198609 .45617677C.1659851 .4711609 .13798523 .49813844 .13798523 .53512576 .13798523 .5980835 .21099854 .63505557 .2829895 .63505557 .36099244 .63505557 .42999269 .5860901 .42999269 .5151367 .42999269 .42619325 .32598878 .3812256 .32398988 .3812256 .32199098 .3812256 .31999208 .3822174 .31298829 .3862152L.19198609 .45617677M.24099732 .31726075 .37799073 .23831177C.4039917 .22332764 .45399476 .19334412 .45399476 .13438416 .45399476 .059432985 .37098695 .012466431 .2849884 .012466431 .19299317 .012466431 .11399841 .07142639 .11399841 .15336609 .11399841 .22732544 .16899109 .2842865 .24099732 .31726075Z"/>
</defs>
<use data-text="0" xlink:href="#font_1_1" transform="matrix(6.9738,0,0,-6.9738,20.265,21.184006)"/>
<path transform="matrix(1,0,0,-1,12.537,2)" stroke-width=".398" stroke-linecap="round" stroke-linejoin="round" fill="none" stroke="#000000" d="M31.226-16.936H17.179"/>
<path transform="matrix(1,0,0,-1,12.537,2)" stroke-width=".398" stroke-linecap="round" stroke-linejoin="round" fill="none" stroke="#000000" d="M49.358-16.936H31.226"/>
<path transform="matrix(1,0,0,-1,80.027,18.937)" stroke-width=".398" stroke-linecap="round" stroke-linejoin="round" fill="none" stroke="#000000" d="M-3.885 0H3.885"/>
<path transform="matrix(1,0,0,-1,80.027,18.937)" stroke-width=".398" stroke-linecap="round" stroke-linejoin="round" fill="none" stroke="#000000" d="M0-3.885V3.885"/>
<path transform="matrix(1,0,0,-1,80.027,18.937)" stroke-width=".398" stroke-linecap="round" stroke-linejoin="round" fill="none" stroke="#000000" d="M0 3.985C-2.199 3.985-3.985 2.199-3.985 0"/>
<path transform="matrix(1,0,0,-1,80.027,18.937)" stroke-width=".398" stroke-linecap="round" stroke-linejoin="round" fill="none" stroke="#000000" d="M-3.985 0C-3.985-2.199-2.199-3.985 0-3.985"/>
<path transform="matrix(1,0,0,-1,80.027,18.937)" stroke-width=".398" stroke-linecap="round" stroke-linejoin="round" fill="none" stroke="#000000" d="M0-3.985C2.199-3.985 3.985-2.199 3.985 0"/>
<path transform="matrix(1,0,0,-1,80.027,18.937)" stroke-width=".398" stroke-linecap="round" stroke-linejoin="round" fill="none" stroke="#000000" d="M3.985 0C3.985 2.199 2.199 3.985 0 3.985"/>
<path transform="matrix(1,0,0,-1,12.537003,2)" stroke-width=".398" stroke-linecap="round" stroke-linejoin="round" fill="none" stroke="#000000" d="M63.405-16.936H49.358"/>
<path transform="matrix(1,0,0,-1,98.159008,18.937)" stroke-width=".398" stroke-linecap="round" stroke-linejoin="round" fill="none" stroke="#000000" d="M-3.885 0H3.885"/>
<path transform="matrix(1,0,0,-1,98.159008,18.937)" stroke-width=".398" stroke-linecap="round" stroke-linejoin="round" fill="none" stroke="#000000" d="M0-3.885V3.885"/>
<path transform="matrix(1,0,0,-1,98.159008,18.937)" stroke-width=".398" stroke-linecap="round" stroke-linejoin="round" fill="none" stroke="#000000" d="M0 3.985C-2.199 3.985-3.985 2.199-3.985 0"/>
<path transform="matrix(1,0,0,-1,98.159008,18.937)" stroke-width=".398" stroke-linecap="round" stroke-linejoin="round" fill="none" stroke="#000000" d="M-3.985 0C-3.985-2.199-2.199-3.985 0-3.985"/>
<path transform="matrix(1,0,0,-1,98.159008,18.937)" stroke-width=".398" stroke-linecap="round" stroke-linejoin="round" fill="none" stroke="#000000" d="M0-3.985C2.199-3.985 3.985-2.199 3.985 0"/>
<path transform="matrix(1,0,0,-1,98.159008,18.937)" stroke-width=".398" stroke-linecap="round" stroke-linejoin="round" fill="none" stroke="#000000" d="M3.985 0C3.985 2.199 2.199 3.985 0 3.985"/>
<path transform="matrix(1,0,0,-1,12.537003,2)" stroke-width=".398" stroke-linecap="round" stroke-linejoin="round" fill="none" stroke="#000000" d="M81.537-16.936H71.575"/>
<path transform="matrix(1,0,0,-1,116.291,18.937)" stroke-width=".398" stroke-linecap="round" stroke-linejoin="round" fill="none" stroke="#000000" d="M-3.885 0H3.885"/>
<path transform="matrix(1,0,0,-1,116.291,18.937)" stroke-width=".398" stroke-linecap="round" stroke-linejoin="round" fill="none" stroke="#000000" d="M0-3.885V3.885"/>
<path transform="matrix(1,0,0,-1,116.291,18.937)" stroke-width=".398" stroke-linecap="round" stroke-linejoin="round" fill="none" stroke="#000000" d="M0 3.985C-2.199 3.985-3.985 2.199-3.985 0"/>
<path transform="matrix(1,0,0,-1,116.291,18.937)" stroke-width=".398" stroke-linecap="round" stroke-linejoin="round" fill="none" stroke="#000000" d="M-3.985 0C-3.985-2.199-2.199-3.985 0-3.985"/>
<path transform="matrix(1,0,0,-1,116.291,18.937)" stroke-width=".398" stroke-linecap="round" stroke-linejoin="round" fill="none" stroke="#000000" d="M0-3.985C2.199-3.985 3.985-2.199 3.985 0"/>
<path transform="matrix(1,0,0,-1,116.291,18.937)" stroke-width=".398" stroke-linecap="round" stroke-linejoin="round" fill="none" stroke="#000000" d="M3.985 0C3.985 2.199 2.199 3.985 0 3.985"/>
<path transform="matrix(1,0,0,-1,12.537003,2)" stroke-width=".398" stroke-linecap="round" stroke-linejoin="round" fill="none" stroke="#000000" d="M99.669-16.936H89.706"/>
<path transform="matrix(1,0,0,-1,12.537003,2)" stroke-width=".398" stroke-linecap="round" stroke-linejoin="round" fill="none" stroke="#000000" d="M117.801-16.936H107.838"/>
<path transform="matrix(1,0,0,-1,12.537003,2)" stroke-width=".398" stroke-linecap="round" stroke-linejoin="round" fill="none" stroke="#000000" d="M127.764-16.936H117.801"/>
<use data-text="1" xlink:href="#font_1_2" transform="matrix(6.9738,0,0,-6.9738,20.265004,38.120004)"/>
<use data-text="&#x2022;" xlink:href="#font_2_1" transform="matrix(9.9626,0,0,-9.9626,41.272005,38.336008)"/>
<path transform="matrix(1,0,0,-1,12.537003,2)" stroke-width=".398" stroke-linecap="round" stroke-linejoin="round" fill="none" stroke="#000000" d="M31.226-35.229V-114.471"/>
<path transform="matrix(1,0,0,-1,12.537003,2)" stroke-width=".398" stroke-linecap="round" stroke-linejoin="round" fill="none" stroke="#000000" d="M30.008-33.873H17.179"/>
<path transform="matrix(1,0,0,-1,12.537003,2)" stroke-width=".398" stroke-linecap="round" stroke-linejoin="round" fill="none" stroke="#000000" d="M49.358-33.873H32.444"/>
<path transform="matrix(1,0,0,-1,12.537003,2)" stroke-width=".398" stroke-linecap="round" stroke-linejoin="round" fill="none" stroke="#000000" d="M67.49-33.873H49.358"/>
<path transform="matrix(1,0,0,-1,12.537003,2)" stroke-width=".398" stroke-linecap="round" stroke-linejoin="round" fill="none" stroke="#000000" d="M85.622-33.873H67.49"/>
<path transform="matrix(1,0,0,-1,12.537003,2)" stroke-width=".398" stroke-linecap="round" stroke-linejoin="round" fill="none" stroke="#000000" d="M103.754-33.873H85.622"/>
<path transform="matrix(1,0,0,-1,12.537003,2)" stroke-width=".398" stroke-linecap="round" stroke-linejoin="round" fill="none" stroke="#000000" d="M117.801-33.873H103.754"/>
<path transform="matrix(1,0,0,-1,12.537003,2)" stroke-width=".398" stroke-linecap="round" stroke-linejoin="round" fill="none" stroke="#000000" d="M127.764-33.873H117.801"/>
<use data-text="3" xlink:href="#font_1_3" transform="matrix(6.9738,0,0,-6.9738,20.265004,55.057008)"/>
<path transform="matrix(1,0,0,-1,12.537003,2)" stroke-width=".398" stroke-linecap="round" stroke-linejoin="round" fill="none" stroke="#000000" d="M31.226-50.809H17.179"/>
<use data-text="&#x2022;" xlink:href="#font_2_1" transform="matrix(9.9626,0,0,-9.9626,59.404005,55.273004)"/>
<path transform="matrix(1,0,0,-1,12.537003,2)" stroke-width=".398" stroke-linecap="round" stroke-linejoin="round" fill="none" stroke="#000000" d="M49.358-52.165V-80.598"/>
<path transform="matrix(1,0,0,-1,12.537003,2)" stroke-width=".398" stroke-linecap="round" stroke-linejoin="round" fill="none" stroke="#000000" d="M48.14-50.809H31.226"/>
<path transform="matrix(1,0,0,-1,12.537003,2)" stroke-width=".398" stroke-linecap="round" stroke-linejoin="round" fill="none" stroke="#000000" d="M67.49-50.809H50.576"/>
<path transform="matrix(1,0,0,-1,12.537003,2)" stroke-width=".398" stroke-linecap="round" stroke-linejoin="round" fill="none" stroke="#000000" d="M85.622-50.809H67.49"/>
<path transform="matrix(1,0,0,-1,12.537003,2)" stroke-width=".398" stroke-linecap="round" stroke-linejoin="round" fill="none" stroke="#000000" d="M103.754-50.809H85.622"/>
<path transform="matrix(1,0,0,-1,12.537003,2)" stroke-width=".398" stroke-linecap="round" stroke-linejoin="round" fill="none" stroke="#000000" d="M117.801-50.809H103.754"/>
<path transform="matrix(1,0,0,-1,12.537003,2)" stroke-width=".398" stroke-linecap="round" stroke-linejoin="round" fill="none" stroke="#000000" d="M127.764-50.809H117.801"/>
<use data-text="4" xlink:href="#font_1_4" transform="matrix(6.9738,0,0,-6.9738,20.265004,71.993007)"/>
<path transform="matrix(1,0,0,-1,12.537003,2)" stroke-width=".398" stroke-linecap="round" stroke-linejoin="round" fill="none" stroke="#000000" d="M31.226-67.746H17.179"/>
<path transform="matrix(1,0,0,-1,12.537003,2)" stroke-width=".398" stroke-linecap="round" stroke-linejoin="round" fill="none" stroke="#000000" d="M49.358-67.746H31.226"/>
<use data-text="&#x2022;" xlink:href="#font_2_1" transform="matrix(9.9626,0,0,-9.9626,77.536,72.20901)"/>
<path transform="matrix(1,0,0,-1,12.537003,2)" stroke-width=".398" stroke-linecap="round" stroke-linejoin="round" fill="none" stroke="#000000" d="M67.49-66.666V-21.021"/>
<path transform="matrix(1,0,0,-1,12.537003,2)" stroke-width=".398" stroke-linecap="round" stroke-linejoin="round" fill="none" stroke="#000000" d="M66.272-67.746H49.358"/>
<path transform="matrix(1,0,0,-1,12.537003,2)" stroke-width=".398" stroke-linecap="round" stroke-linejoin="round" fill="none" stroke="#000000" d="M85.622-67.746H68.708"/>
<path transform="matrix(1,0,0,-1,12.537003,2)" stroke-width=".398" stroke-linecap="round" stroke-linejoin="round" fill="none" stroke="#000000" d="M103.754-67.746H85.622"/>
<path transform="matrix(1,0,0,-1,12.537003,2)" stroke-width=".398" stroke-linecap="round" stroke-linejoin="round" fill="none" stroke="#000000" d="M117.801-67.746H103.754"/>
<path transform="matrix(1,0,0,-1,12.537003,2)" stroke-width=".398" stroke-linecap="round" stroke-linejoin="round" fill="none" stroke="#000000" d="M127.764-67.746H117.801"/>
<use data-text="6" xlink:href="#font_1_5" transform="matrix(6.9738,0,0,-6.9738,20.265004,88.93001)"/>
<path transform="matrix(1,0,0,-1,12.537003,2)" stroke-width=".398" stroke-linecap="round" stroke-linejoin="round" fill="none" stroke="#000000" d="M31.226-84.682H17.179"/>
<path transform="matrix(1,0,0,-1,61.895006,86.683)" stroke-width=".398" stroke-linecap="round" stroke-linejoin="round" fill="none" stroke="#000000" d="M-3.885 0H3.885"/>
<path transform="matrix(1,0,0,-1,61.895006,86.683)" stroke-width=".398" stroke-linecap="round" stroke-linejoin="round" fill="none" stroke="#000000" d="M0-3.885V3.885"/>
<path transform="matrix(1,0,0,-1,61.895006,86.683)" stroke-width=".398" stroke-linecap="round" stroke-linejoin="round" fill="none" stroke="#000000" d="M0 3.985C-2.199 3.985-3.985 2.199-3.985 0"/>
<path transform="matrix(1,0,0,-1,61.895006,86.683)" stroke-width=".398" stroke-linecap="round" stroke-linejoin="round" fill="none" stroke="#000000" d="M-3.985 0C-3.985-2.199-2.199-3.985 0-3.985"/>
<path transform="matrix(1,0,0,-1,61.895006,86.683)" stroke-width=".398" stroke-linecap="round" stroke-linejoin="round" fill="none" stroke="#000000" d="M0-3.985C2.199-3.985 3.985-2.199 3.985 0"/>
<path transform="matrix(1,0,0,-1,61.895006,86.683)" stroke-width=".398" stroke-linecap="round" stroke-linejoin="round" fill="none" stroke="#000000" d="M3.985 0C3.985 2.199 2.199 3.985 0 3.985"/>
<path transform="matrix(1,0,0,-1,12.537003,2)" stroke-width=".398" stroke-linecap="round" stroke-linejoin="round" fill="none" stroke="#000000" d="M45.273-84.682H31.226"/>
<path transform="matrix(1,0,0,-1,80.027,86.683)" stroke-width=".398" stroke-linecap="round" stroke-linejoin="round" fill="none" stroke="#000000" d="M-3.885 0H3.885"/>
<path transform="matrix(1,0,0,-1,80.027,86.683)" stroke-width=".398" stroke-linecap="round" stroke-linejoin="round" fill="none" stroke="#000000" d="M0-3.885V3.885"/>
<path transform="matrix(1,0,0,-1,80.027,86.683)" stroke-width=".398" stroke-linecap="round" stroke-linejoin="round" fill="none" stroke="#000000" d="M0 3.985C-2.199 3.985-3.985 2.199-3.985 0"/>
<path transform="matrix(1,0,0,-1,80.027,86.683)" stroke-width=".398" stroke-linecap="round" stroke-linejoin="round" fill="none" stroke="#000000" d="M-3.985 0C-3.985-2.199-2.199-3.985 0-3.985"/>
<path transform="matrix(1,0,0,-1,80.027,86.683)" stroke-width=".398" stroke-linecap="round" stroke-linejoin="round" fill="none" stroke="#000000" d="M0-3.985C2.199-3.985 3.985-2.199 3.985 0"/>
<path transform="matrix(1,0,0,-1,80.027,86.683)" stroke-width=".398" stroke-linecap="round" stroke-linejoin="round" fill="none" stroke="#000000" d="M3.985 0C3.985 2.199 2.199 3.985 0 3.985"/>
<path transform="matrix(1,0,0,-1,12.537003,2)" stroke-width=".398" stroke-linecap="round" stroke-linejoin="round" fill="none" stroke="#000000" d="M63.405-84.682H53.443"/>
<path transform="matrix(1,0,0,-1,12.537003,2)" stroke-width=".398" stroke-linecap="round" stroke-linejoin="round" fill="none" stroke="#000000" d="M85.622-84.682H71.575"/>
<use data-text="&#x2022;" xlink:href="#font_2_1" transform="matrix(9.9626,0,0,-9.9626,113.8,89.146)"/>
<path transform="matrix(1,0,0,-1,12.537003,2)" stroke-width=".398" stroke-linecap="round" stroke-linejoin="round" fill="none" stroke="#000000" d="M103.754-83.603V-21.021"/>
<path transform="matrix(1,0,0,-1,12.537003,2)" stroke-width=".398" stroke-linecap="round" stroke-linejoin="round" fill="none" stroke="#000000" d="M102.536-84.682H85.622"/>
<path transform="matrix(1,0,0,-1,12.537003,2)" stroke-width=".398" stroke-linecap="round" stroke-linejoin="round" fill="none" stroke="#000000" d="M117.801-84.682H104.971"/>
<path transform="matrix(1,0,0,-1,12.537003,2)" stroke-width=".398" stroke-linecap="round" stroke-linejoin="round" fill="none" stroke="#000000" d="M127.764-84.682H117.801"/>
<use data-text="7" xlink:href="#font_1_6" transform="matrix(6.9738,0,0,-6.9738,20.265004,105.866008)"/>
<path transform="matrix(1,0,0,-1,12.537003,2)" stroke-width=".398" stroke-linecap="round" stroke-linejoin="round" fill="none" stroke="#000000" d="M31.226-101.619H17.179"/>
<path transform="matrix(1,0,0,-1,12.537003,2)" stroke-width=".398" stroke-linecap="round" stroke-linejoin="round" fill="none" stroke="#000000" d="M49.358-101.619H31.226"/>
<path transform="matrix(1,0,0,-1,12.537003,2)" stroke-width=".398" stroke-linecap="round" stroke-linejoin="round" fill="none" stroke="#000000" d="M67.49-101.619H49.358"/>
<use data-text="&#x2022;" xlink:href="#font_2_1" transform="matrix(9.9626,0,0,-9.9626,95.668,106.082)"/>
<path transform="matrix(1,0,0,-1,12.537003,2)" stroke-width=".398" stroke-linecap="round" stroke-linejoin="round" fill="none" stroke="#000000" d="M85.622-100.539V-21.021"/>
<path transform="matrix(1,0,0,-1,12.537003,2)" stroke-width=".398" stroke-linecap="round" stroke-linejoin="round" fill="none" stroke="#000000" d="M84.404-101.619H67.49"/>
<path transform="matrix(1,0,0,-1,12.537003,2)" stroke-width=".398" stroke-linecap="round" stroke-linejoin="round" fill="none" stroke="#000000" d="M103.754-101.619H86.839"/>
<path transform="matrix(1,0,0,-1,12.537003,2)" stroke-width=".398" stroke-linecap="round" stroke-linejoin="round" fill="none" stroke="#000000" d="M117.801-101.619H103.754"/>
<path transform="matrix(1,0,0,-1,12.537003,2)" stroke-width=".398" stroke-linecap="round" stroke-linejoin="round" fill="none" stroke="#000000" d="M127.764-101.619H117.801"/>
<use data-text="8" xlink:href="#font_1_7" transform="matrix(6.9738,0,0,-6.9738,20.265004,122.80301)"/>
<path transform="matrix(1,0,0,-1,43.763006,120.556)" stroke-width=".398" stroke-linecap="round" stroke-linejoin="round" fill="none" stroke="#000000" d="M-3.885 0H3.885"/>
<path transform="matrix(1,0,0,-1,43.763006,120.556)" stroke-width=".398" stroke-linecap="round" stroke-linejoin="round" fill="none" stroke="#000000" d="M0-3.885V3.885"/>
<path transform="matrix(1,0,0,-1,43.763006,120.556)" stroke-width=".398" stroke-linecap="round" stroke-linejoin="round" fill="none" stroke="#000000" d="M0 3.985C-2.199 3.985-3.985 2.199-3.985 0"/>
<path transform="matrix(1,0,0,-1,43.763006,120.556)" stroke-width=".398" stroke-linecap="round" stroke-linejoin="round" fill="none" stroke="#000000" d="M-3.985 0C-3.985-2.199-2.199-3.985 0-3.985"/>
<path transform="matrix(1,0,0,-1,43.763006,120.556)" stroke-width=".398" stroke-linecap="round" stroke-linejoin="round" fill="none" stroke="#000000" d="M0-3.985C2.199-3.985 3.985-2.199 3.985 0"/>
<path transform="matrix(1,0,0,-1,43.763006,120.556)" stroke-width=".398" stroke-linecap="round" stroke-linejoin="round" fill="none" stroke="#000000" d="M3.985 0C3.985 2.199 2.199 3.985 0 3.985"/>
<path transform="matrix(1,0,0,-1,12.537004,2)" stroke-width=".398" stroke-linecap="round" stroke-linejoin="round" fill="none" stroke="#000000" d="M27.141-118.555H17.179"/>
<path transform="matrix(1,0,0,-1,12.537004,2)" stroke-width=".398" stroke-linecap="round" stroke-linejoin="round" fill="none" stroke="#000000" d="M49.358-118.555H35.311"/>
<use data-text="&#x2022;" xlink:href="#font_2_1" transform="matrix(9.9626,0,0,-9.9626,77.53601,123.018009)"/>
<path transform="matrix(1,0,0,-1,12.537004,2)" stroke-width=".398" stroke-linecap="round" stroke-linejoin="round" fill="none" stroke="#000000" d="M67.49-117.475V-88.767"/>
<path transform="matrix(1,0,0,-1,12.537004,2)" stroke-width=".398" stroke-linecap="round" stroke-linejoin="round" fill="none" stroke="#000000" d="M66.272-118.555H49.358"/>
<path transform="matrix(1,0,0,-1,12.537004,2)" stroke-width=".398" stroke-linecap="round" stroke-linejoin="round" fill="none" stroke="#000000" d="M85.622-118.555H68.708"/>
<path transform="matrix(1,0,0,-1,12.537004,2)" stroke-width=".398" stroke-linecap="round" stroke-linejoin="round" fill="none" stroke="#000000" d="M103.754-118.555H85.622"/>
<path transform="matrix(1,0,0,-1,12.537004,2)" stroke-width=".398" stroke-linecap="round" stroke-linejoin="round" fill="none" stroke="#000000" d="M117.801-118.555H103.754"/>
<path transform="matrix(1,0,0,-1,12.537004,2)" stroke-width=".398" stroke-linecap="round" stroke-linejoin="round" fill="none" stroke="#000000" d="M127.764-118.555H117.801"/>
</svg>
